G04 #@! TF.GenerationSoftware,KiCad,Pcbnew,(5.1.7)-1*
G04 #@! TF.CreationDate,2021-12-31T12:27:06+00:00*
G04 #@! TF.ProjectId,Panel,50616e65-6c2e-46b6-9963-61645f706362,rev?*
G04 #@! TF.SameCoordinates,Original*
G04 #@! TF.FileFunction,Copper,L2,Bot*
G04 #@! TF.FilePolarity,Positive*
%FSLAX46Y46*%
G04 Gerber Fmt 4.6, Leading zero omitted, Abs format (unit mm)*
G04 Created by KiCad (PCBNEW (5.1.7)-1) date 2021-12-31 12:27:06*
%MOMM*%
%LPD*%
G01*
G04 APERTURE LIST*
G04 #@! TA.AperFunction,ComponentPad*
%ADD10C,5.600000*%
G04 #@! TD*
G04 #@! TA.AperFunction,ComponentPad*
%ADD11C,4.000000*%
G04 #@! TD*
G04 #@! TA.AperFunction,ComponentPad*
%ADD12C,16.000000*%
G04 #@! TD*
G04 #@! TA.AperFunction,ComponentPad*
%ADD13C,5.400000*%
G04 #@! TD*
G04 #@! TA.AperFunction,ComponentPad*
%ADD14O,10.600000X5.600000*%
G04 #@! TD*
G04 #@! TA.AperFunction,Conductor*
%ADD15C,0.254000*%
G04 #@! TD*
G04 #@! TA.AperFunction,Conductor*
%ADD16C,0.100000*%
G04 #@! TD*
G04 APERTURE END LIST*
D10*
X171350000Y-121380000D03*
X171330000Y-47890000D03*
D11*
X148220000Y-134180000D03*
X171220000Y-134180000D03*
D12*
X159720000Y-134180000D03*
X159720000Y-109180000D03*
D11*
X171220000Y-109180000D03*
X148220000Y-109180000D03*
D12*
X159720000Y-84180000D03*
D11*
X171220000Y-84180000D03*
X148220000Y-84180000D03*
X148220000Y-59180000D03*
X171220000Y-59180000D03*
D12*
X159720000Y-59180000D03*
X159720000Y-34180000D03*
D11*
X171220000Y-34180000D03*
X148220000Y-34180000D03*
X148210000Y3010000D03*
X148210000Y26010000D03*
D12*
X148210000Y14510000D03*
D13*
X140010000Y-78380000D03*
X140010000Y-128380000D03*
X140010000Y-103380000D03*
X140010000Y-53380000D03*
X140010000Y-28380000D03*
X176060000Y20180000D03*
X140010000Y-3380000D03*
D10*
X147350000Y-121380000D03*
X147330000Y-47890000D03*
X159330000Y4900000D03*
D14*
X140362000Y-151962000D03*
X178362000Y-151962000D03*
X178362000Y41038000D03*
X140362000Y41038000D03*
D15*
X173848020Y43823540D02*
X173343286Y43377109D01*
X172935345Y42840787D01*
X172639874Y42235185D01*
X172491478Y41700421D01*
X172588212Y41165000D01*
X178235000Y41165000D01*
X178235000Y41185000D01*
X178489000Y41185000D01*
X178489000Y41165000D01*
X178509000Y41165000D01*
X178509000Y40911000D01*
X178489000Y40911000D01*
X178489000Y37603000D01*
X180989000Y37603000D01*
X181656695Y37693779D01*
X182293850Y37913075D01*
X182875980Y38252460D01*
X183380714Y38698891D01*
X183702001Y39121289D01*
X183702000Y-150045287D01*
X183380714Y-149622891D01*
X182875980Y-149176460D01*
X182293850Y-148837075D01*
X181656695Y-148617779D01*
X180989000Y-148527000D01*
X178489000Y-148527000D01*
X178489000Y-151835000D01*
X178509000Y-151835000D01*
X178509000Y-152089000D01*
X178489000Y-152089000D01*
X178489000Y-152109000D01*
X178235000Y-152109000D01*
X178235000Y-152089000D01*
X172588212Y-152089000D01*
X172491478Y-152624421D01*
X172639874Y-153159185D01*
X172935345Y-153764787D01*
X173343286Y-154301109D01*
X173848020Y-154747540D01*
X173941432Y-154802000D01*
X144782568Y-154802000D01*
X144875980Y-154747540D01*
X145380714Y-154301109D01*
X145788655Y-153764787D01*
X146084126Y-153159185D01*
X146232522Y-152624421D01*
X146135788Y-152089000D01*
X140489000Y-152089000D01*
X140489000Y-152109000D01*
X140235000Y-152109000D01*
X140235000Y-152089000D01*
X140215000Y-152089000D01*
X140215000Y-151835000D01*
X140235000Y-151835000D01*
X140235000Y-148527000D01*
X140489000Y-148527000D01*
X140489000Y-151835000D01*
X146135788Y-151835000D01*
X146232522Y-151299579D01*
X172491478Y-151299579D01*
X172588212Y-151835000D01*
X178235000Y-151835000D01*
X178235000Y-148527000D01*
X175735000Y-148527000D01*
X175067305Y-148617779D01*
X174430150Y-148837075D01*
X173848020Y-149176460D01*
X173343286Y-149622891D01*
X172935345Y-150159213D01*
X172639874Y-150764815D01*
X172491478Y-151299579D01*
X146232522Y-151299579D01*
X146084126Y-150764815D01*
X145788655Y-150159213D01*
X145380714Y-149622891D01*
X144875980Y-149176460D01*
X144293850Y-148837075D01*
X143656695Y-148617779D01*
X142989000Y-148527000D01*
X140489000Y-148527000D01*
X140235000Y-148527000D01*
X137735000Y-148527000D01*
X137067305Y-148617779D01*
X136430150Y-148837075D01*
X135848020Y-149176460D01*
X135343286Y-149622891D01*
X135022000Y-150045287D01*
X135022000Y-133920475D01*
X145585000Y-133920475D01*
X145585000Y-134439525D01*
X145686261Y-134948601D01*
X145884893Y-135428141D01*
X146173262Y-135859715D01*
X146540285Y-136226738D01*
X146971859Y-136515107D01*
X147451399Y-136713739D01*
X147960475Y-136815000D01*
X148479525Y-136815000D01*
X148988601Y-136713739D01*
X149468141Y-136515107D01*
X149899715Y-136226738D01*
X150266738Y-135859715D01*
X150555107Y-135428141D01*
X150753739Y-134948601D01*
X150855000Y-134439525D01*
X150855000Y-133920475D01*
X150753739Y-133411399D01*
X150719827Y-133329527D01*
X151085000Y-133329527D01*
X151085000Y-135030473D01*
X151416838Y-136698737D01*
X152067762Y-138270206D01*
X153012758Y-139684492D01*
X154215508Y-140887242D01*
X155629794Y-141832238D01*
X157201263Y-142483162D01*
X158869527Y-142815000D01*
X160570473Y-142815000D01*
X162238737Y-142483162D01*
X163810206Y-141832238D01*
X165224492Y-140887242D01*
X166427242Y-139684492D01*
X167372238Y-138270206D01*
X168023162Y-136698737D01*
X168355000Y-135030473D01*
X168355000Y-133920475D01*
X168585000Y-133920475D01*
X168585000Y-134439525D01*
X168686261Y-134948601D01*
X168884893Y-135428141D01*
X169173262Y-135859715D01*
X169540285Y-136226738D01*
X169971859Y-136515107D01*
X170451399Y-136713739D01*
X170960475Y-136815000D01*
X171479525Y-136815000D01*
X171988601Y-136713739D01*
X172468141Y-136515107D01*
X172899715Y-136226738D01*
X173266738Y-135859715D01*
X173555107Y-135428141D01*
X173753739Y-134948601D01*
X173855000Y-134439525D01*
X173855000Y-133920475D01*
X173753739Y-133411399D01*
X173555107Y-132931859D01*
X173266738Y-132500285D01*
X172899715Y-132133262D01*
X172468141Y-131844893D01*
X171988601Y-131646261D01*
X171479525Y-131545000D01*
X170960475Y-131545000D01*
X170451399Y-131646261D01*
X169971859Y-131844893D01*
X169540285Y-132133262D01*
X169173262Y-132500285D01*
X168884893Y-132931859D01*
X168686261Y-133411399D01*
X168585000Y-133920475D01*
X168355000Y-133920475D01*
X168355000Y-133329527D01*
X168023162Y-131661263D01*
X167372238Y-130089794D01*
X166427242Y-128675508D01*
X165224492Y-127472758D01*
X163810206Y-126527762D01*
X162238737Y-125876838D01*
X160570473Y-125545000D01*
X158869527Y-125545000D01*
X157201263Y-125876838D01*
X155629794Y-126527762D01*
X154215508Y-127472758D01*
X153012758Y-128675508D01*
X152067762Y-130089794D01*
X151416838Y-131661263D01*
X151085000Y-133329527D01*
X150719827Y-133329527D01*
X150555107Y-132931859D01*
X150266738Y-132500285D01*
X149899715Y-132133262D01*
X149468141Y-131844893D01*
X148988601Y-131646261D01*
X148479525Y-131545000D01*
X147960475Y-131545000D01*
X147451399Y-131646261D01*
X146971859Y-131844893D01*
X146540285Y-132133262D01*
X146173262Y-132500285D01*
X145884893Y-132931859D01*
X145686261Y-133411399D01*
X145585000Y-133920475D01*
X135022000Y-133920475D01*
X135022000Y-130725374D01*
X137844231Y-130725374D01*
X138144411Y-131163828D01*
X138723356Y-131474296D01*
X139351746Y-131665852D01*
X140005431Y-131731134D01*
X140659293Y-131667634D01*
X141288203Y-131477792D01*
X141867992Y-131168904D01*
X141875589Y-131163828D01*
X142175769Y-130725374D01*
X140010000Y-128559605D01*
X137844231Y-130725374D01*
X135022000Y-130725374D01*
X135022000Y-128375431D01*
X136658866Y-128375431D01*
X136722366Y-129029293D01*
X136912208Y-129658203D01*
X137221096Y-130237992D01*
X137226172Y-130245589D01*
X137664626Y-130545769D01*
X139830395Y-128380000D01*
X140189605Y-128380000D01*
X142355374Y-130545769D01*
X142793828Y-130245589D01*
X143104296Y-129666644D01*
X143295852Y-129038254D01*
X143361134Y-128384569D01*
X143297634Y-127730707D01*
X143107792Y-127101797D01*
X142798904Y-126522008D01*
X142793828Y-126514411D01*
X142355374Y-126214231D01*
X140189605Y-128380000D01*
X139830395Y-128380000D01*
X137664626Y-126214231D01*
X137226172Y-126514411D01*
X136915704Y-127093356D01*
X136724148Y-127721746D01*
X136658866Y-128375431D01*
X135022000Y-128375431D01*
X135022000Y-126034626D01*
X137844231Y-126034626D01*
X140010000Y-128200395D01*
X142175769Y-126034626D01*
X141875589Y-125596172D01*
X141296644Y-125285704D01*
X140668254Y-125094148D01*
X140014569Y-125028866D01*
X139360707Y-125092366D01*
X138731797Y-125282208D01*
X138152008Y-125591096D01*
X138144411Y-125596172D01*
X137844231Y-126034626D01*
X135022000Y-126034626D01*
X135022000Y-123796481D01*
X145113124Y-123796481D01*
X145425308Y-124245177D01*
X146021259Y-124565612D01*
X146668273Y-124763626D01*
X147341484Y-124831610D01*
X148015023Y-124766949D01*
X148663006Y-124572130D01*
X149260530Y-124254639D01*
X149274692Y-124245177D01*
X149586876Y-123796481D01*
X169113124Y-123796481D01*
X169425308Y-124245177D01*
X170021259Y-124565612D01*
X170668273Y-124763626D01*
X171341484Y-124831610D01*
X172015023Y-124766949D01*
X172663006Y-124572130D01*
X173260530Y-124254639D01*
X173274692Y-124245177D01*
X173586876Y-123796481D01*
X171350000Y-121559605D01*
X169113124Y-123796481D01*
X149586876Y-123796481D01*
X147350000Y-121559605D01*
X145113124Y-123796481D01*
X135022000Y-123796481D01*
X135022000Y-121371484D01*
X143898390Y-121371484D01*
X143963051Y-122045023D01*
X144157870Y-122693006D01*
X144475361Y-123290530D01*
X144484823Y-123304692D01*
X144933519Y-123616876D01*
X147170395Y-121380000D01*
X147529605Y-121380000D01*
X149766481Y-123616876D01*
X150215177Y-123304692D01*
X150535612Y-122708741D01*
X150733626Y-122061727D01*
X150801610Y-121388516D01*
X150799975Y-121371484D01*
X167898390Y-121371484D01*
X167963051Y-122045023D01*
X168157870Y-122693006D01*
X168475361Y-123290530D01*
X168484823Y-123304692D01*
X168933519Y-123616876D01*
X171170395Y-121380000D01*
X171529605Y-121380000D01*
X173766481Y-123616876D01*
X174215177Y-123304692D01*
X174535612Y-122708741D01*
X174733626Y-122061727D01*
X174801610Y-121388516D01*
X174736949Y-120714977D01*
X174542130Y-120066994D01*
X174224639Y-119469470D01*
X174215177Y-119455308D01*
X173766481Y-119143124D01*
X171529605Y-121380000D01*
X171170395Y-121380000D01*
X168933519Y-119143124D01*
X168484823Y-119455308D01*
X168164388Y-120051259D01*
X167966374Y-120698273D01*
X167898390Y-121371484D01*
X150799975Y-121371484D01*
X150736949Y-120714977D01*
X150542130Y-120066994D01*
X150224639Y-119469470D01*
X150215177Y-119455308D01*
X149766481Y-119143124D01*
X147529605Y-121380000D01*
X147170395Y-121380000D01*
X144933519Y-119143124D01*
X144484823Y-119455308D01*
X144164388Y-120051259D01*
X143966374Y-120698273D01*
X143898390Y-121371484D01*
X135022000Y-121371484D01*
X135022000Y-118963519D01*
X145113124Y-118963519D01*
X147350000Y-121200395D01*
X149586876Y-118963519D01*
X169113124Y-118963519D01*
X171350000Y-121200395D01*
X173586876Y-118963519D01*
X173274692Y-118514823D01*
X172678741Y-118194388D01*
X172031727Y-117996374D01*
X171358516Y-117928390D01*
X170684977Y-117993051D01*
X170036994Y-118187870D01*
X169439470Y-118505361D01*
X169425308Y-118514823D01*
X169113124Y-118963519D01*
X149586876Y-118963519D01*
X149274692Y-118514823D01*
X148678741Y-118194388D01*
X148031727Y-117996374D01*
X147358516Y-117928390D01*
X146684977Y-117993051D01*
X146036994Y-118187870D01*
X145439470Y-118505361D01*
X145425308Y-118514823D01*
X145113124Y-118963519D01*
X135022000Y-118963519D01*
X135022000Y-108920475D01*
X145585000Y-108920475D01*
X145585000Y-109439525D01*
X145686261Y-109948601D01*
X145884893Y-110428141D01*
X146173262Y-110859715D01*
X146540285Y-111226738D01*
X146971859Y-111515107D01*
X147451399Y-111713739D01*
X147960475Y-111815000D01*
X148479525Y-111815000D01*
X148988601Y-111713739D01*
X149468141Y-111515107D01*
X149899715Y-111226738D01*
X150266738Y-110859715D01*
X150555107Y-110428141D01*
X150753739Y-109948601D01*
X150855000Y-109439525D01*
X150855000Y-108920475D01*
X150753739Y-108411399D01*
X150719827Y-108329527D01*
X151085000Y-108329527D01*
X151085000Y-110030473D01*
X151416838Y-111698737D01*
X152067762Y-113270206D01*
X153012758Y-114684492D01*
X154215508Y-115887242D01*
X155629794Y-116832238D01*
X157201263Y-117483162D01*
X158869527Y-117815000D01*
X160570473Y-117815000D01*
X162238737Y-117483162D01*
X163810206Y-116832238D01*
X165224492Y-115887242D01*
X166427242Y-114684492D01*
X167372238Y-113270206D01*
X168023162Y-111698737D01*
X168355000Y-110030473D01*
X168355000Y-108920475D01*
X168585000Y-108920475D01*
X168585000Y-109439525D01*
X168686261Y-109948601D01*
X168884893Y-110428141D01*
X169173262Y-110859715D01*
X169540285Y-111226738D01*
X169971859Y-111515107D01*
X170451399Y-111713739D01*
X170960475Y-111815000D01*
X171479525Y-111815000D01*
X171988601Y-111713739D01*
X172468141Y-111515107D01*
X172899715Y-111226738D01*
X173266738Y-110859715D01*
X173555107Y-110428141D01*
X173753739Y-109948601D01*
X173855000Y-109439525D01*
X173855000Y-108920475D01*
X173753739Y-108411399D01*
X173555107Y-107931859D01*
X173266738Y-107500285D01*
X172899715Y-107133262D01*
X172468141Y-106844893D01*
X171988601Y-106646261D01*
X171479525Y-106545000D01*
X170960475Y-106545000D01*
X170451399Y-106646261D01*
X169971859Y-106844893D01*
X169540285Y-107133262D01*
X169173262Y-107500285D01*
X168884893Y-107931859D01*
X168686261Y-108411399D01*
X168585000Y-108920475D01*
X168355000Y-108920475D01*
X168355000Y-108329527D01*
X168023162Y-106661263D01*
X167372238Y-105089794D01*
X166427242Y-103675508D01*
X165224492Y-102472758D01*
X163810206Y-101527762D01*
X162238737Y-100876838D01*
X160570473Y-100545000D01*
X158869527Y-100545000D01*
X157201263Y-100876838D01*
X155629794Y-101527762D01*
X154215508Y-102472758D01*
X153012758Y-103675508D01*
X152067762Y-105089794D01*
X151416838Y-106661263D01*
X151085000Y-108329527D01*
X150719827Y-108329527D01*
X150555107Y-107931859D01*
X150266738Y-107500285D01*
X149899715Y-107133262D01*
X149468141Y-106844893D01*
X148988601Y-106646261D01*
X148479525Y-106545000D01*
X147960475Y-106545000D01*
X147451399Y-106646261D01*
X146971859Y-106844893D01*
X146540285Y-107133262D01*
X146173262Y-107500285D01*
X145884893Y-107931859D01*
X145686261Y-108411399D01*
X145585000Y-108920475D01*
X135022000Y-108920475D01*
X135022000Y-105725374D01*
X137844231Y-105725374D01*
X138144411Y-106163828D01*
X138723356Y-106474296D01*
X139351746Y-106665852D01*
X140005431Y-106731134D01*
X140659293Y-106667634D01*
X141288203Y-106477792D01*
X141867992Y-106168904D01*
X141875589Y-106163828D01*
X142175769Y-105725374D01*
X140010000Y-103559605D01*
X137844231Y-105725374D01*
X135022000Y-105725374D01*
X135022000Y-103375431D01*
X136658866Y-103375431D01*
X136722366Y-104029293D01*
X136912208Y-104658203D01*
X137221096Y-105237992D01*
X137226172Y-105245589D01*
X137664626Y-105545769D01*
X139830395Y-103380000D01*
X140189605Y-103380000D01*
X142355374Y-105545769D01*
X142793828Y-105245589D01*
X143104296Y-104666644D01*
X143295852Y-104038254D01*
X143361134Y-103384569D01*
X143297634Y-102730707D01*
X143107792Y-102101797D01*
X142798904Y-101522008D01*
X142793828Y-101514411D01*
X142355374Y-101214231D01*
X140189605Y-103380000D01*
X139830395Y-103380000D01*
X137664626Y-101214231D01*
X137226172Y-101514411D01*
X136915704Y-102093356D01*
X136724148Y-102721746D01*
X136658866Y-103375431D01*
X135022000Y-103375431D01*
X135022000Y-101034626D01*
X137844231Y-101034626D01*
X140010000Y-103200395D01*
X142175769Y-101034626D01*
X141875589Y-100596172D01*
X141296644Y-100285704D01*
X140668254Y-100094148D01*
X140014569Y-100028866D01*
X139360707Y-100092366D01*
X138731797Y-100282208D01*
X138152008Y-100591096D01*
X138144411Y-100596172D01*
X137844231Y-101034626D01*
X135022000Y-101034626D01*
X135022000Y-83920475D01*
X145585000Y-83920475D01*
X145585000Y-84439525D01*
X145686261Y-84948601D01*
X145884893Y-85428141D01*
X146173262Y-85859715D01*
X146540285Y-86226738D01*
X146971859Y-86515107D01*
X147451399Y-86713739D01*
X147960475Y-86815000D01*
X148479525Y-86815000D01*
X148988601Y-86713739D01*
X149468141Y-86515107D01*
X149899715Y-86226738D01*
X150266738Y-85859715D01*
X150555107Y-85428141D01*
X150753739Y-84948601D01*
X150855000Y-84439525D01*
X150855000Y-83920475D01*
X150753739Y-83411399D01*
X150719827Y-83329527D01*
X151085000Y-83329527D01*
X151085000Y-85030473D01*
X151416838Y-86698737D01*
X152067762Y-88270206D01*
X153012758Y-89684492D01*
X154215508Y-90887242D01*
X155629794Y-91832238D01*
X157201263Y-92483162D01*
X158869527Y-92815000D01*
X160570473Y-92815000D01*
X162238737Y-92483162D01*
X163810206Y-91832238D01*
X165224492Y-90887242D01*
X166427242Y-89684492D01*
X167372238Y-88270206D01*
X168023162Y-86698737D01*
X168355000Y-85030473D01*
X168355000Y-83920475D01*
X168585000Y-83920475D01*
X168585000Y-84439525D01*
X168686261Y-84948601D01*
X168884893Y-85428141D01*
X169173262Y-85859715D01*
X169540285Y-86226738D01*
X169971859Y-86515107D01*
X170451399Y-86713739D01*
X170960475Y-86815000D01*
X171479525Y-86815000D01*
X171988601Y-86713739D01*
X172468141Y-86515107D01*
X172899715Y-86226738D01*
X173266738Y-85859715D01*
X173555107Y-85428141D01*
X173753739Y-84948601D01*
X173855000Y-84439525D01*
X173855000Y-83920475D01*
X173753739Y-83411399D01*
X173555107Y-82931859D01*
X173266738Y-82500285D01*
X172899715Y-82133262D01*
X172468141Y-81844893D01*
X171988601Y-81646261D01*
X171479525Y-81545000D01*
X170960475Y-81545000D01*
X170451399Y-81646261D01*
X169971859Y-81844893D01*
X169540285Y-82133262D01*
X169173262Y-82500285D01*
X168884893Y-82931859D01*
X168686261Y-83411399D01*
X168585000Y-83920475D01*
X168355000Y-83920475D01*
X168355000Y-83329527D01*
X168023162Y-81661263D01*
X167372238Y-80089794D01*
X166427242Y-78675508D01*
X165224492Y-77472758D01*
X163810206Y-76527762D01*
X162238737Y-75876838D01*
X160570473Y-75545000D01*
X158869527Y-75545000D01*
X157201263Y-75876838D01*
X155629794Y-76527762D01*
X154215508Y-77472758D01*
X153012758Y-78675508D01*
X152067762Y-80089794D01*
X151416838Y-81661263D01*
X151085000Y-83329527D01*
X150719827Y-83329527D01*
X150555107Y-82931859D01*
X150266738Y-82500285D01*
X149899715Y-82133262D01*
X149468141Y-81844893D01*
X148988601Y-81646261D01*
X148479525Y-81545000D01*
X147960475Y-81545000D01*
X147451399Y-81646261D01*
X146971859Y-81844893D01*
X146540285Y-82133262D01*
X146173262Y-82500285D01*
X145884893Y-82931859D01*
X145686261Y-83411399D01*
X145585000Y-83920475D01*
X135022000Y-83920475D01*
X135022000Y-80725374D01*
X137844231Y-80725374D01*
X138144411Y-81163828D01*
X138723356Y-81474296D01*
X139351746Y-81665852D01*
X140005431Y-81731134D01*
X140659293Y-81667634D01*
X141288203Y-81477792D01*
X141867992Y-81168904D01*
X141875589Y-81163828D01*
X142175769Y-80725374D01*
X140010000Y-78559605D01*
X137844231Y-80725374D01*
X135022000Y-80725374D01*
X135022000Y-78375431D01*
X136658866Y-78375431D01*
X136722366Y-79029293D01*
X136912208Y-79658203D01*
X137221096Y-80237992D01*
X137226172Y-80245589D01*
X137664626Y-80545769D01*
X139830395Y-78380000D01*
X140189605Y-78380000D01*
X142355374Y-80545769D01*
X142793828Y-80245589D01*
X143104296Y-79666644D01*
X143295852Y-79038254D01*
X143361134Y-78384569D01*
X143297634Y-77730707D01*
X143107792Y-77101797D01*
X142798904Y-76522008D01*
X142793828Y-76514411D01*
X142355374Y-76214231D01*
X140189605Y-78380000D01*
X139830395Y-78380000D01*
X137664626Y-76214231D01*
X137226172Y-76514411D01*
X136915704Y-77093356D01*
X136724148Y-77721746D01*
X136658866Y-78375431D01*
X135022000Y-78375431D01*
X135022000Y-76034626D01*
X137844231Y-76034626D01*
X140010000Y-78200395D01*
X142175769Y-76034626D01*
X141875589Y-75596172D01*
X141296644Y-75285704D01*
X140668254Y-75094148D01*
X140014569Y-75028866D01*
X139360707Y-75092366D01*
X138731797Y-75282208D01*
X138152008Y-75591096D01*
X138144411Y-75596172D01*
X137844231Y-76034626D01*
X135022000Y-76034626D01*
X135022000Y-58920475D01*
X145585000Y-58920475D01*
X145585000Y-59439525D01*
X145686261Y-59948601D01*
X145884893Y-60428141D01*
X146173262Y-60859715D01*
X146540285Y-61226738D01*
X146971859Y-61515107D01*
X147451399Y-61713739D01*
X147960475Y-61815000D01*
X148479525Y-61815000D01*
X148988601Y-61713739D01*
X149468141Y-61515107D01*
X149899715Y-61226738D01*
X150266738Y-60859715D01*
X150555107Y-60428141D01*
X150753739Y-59948601D01*
X150855000Y-59439525D01*
X150855000Y-58920475D01*
X150753739Y-58411399D01*
X150719827Y-58329527D01*
X151085000Y-58329527D01*
X151085000Y-60030473D01*
X151416838Y-61698737D01*
X152067762Y-63270206D01*
X153012758Y-64684492D01*
X154215508Y-65887242D01*
X155629794Y-66832238D01*
X157201263Y-67483162D01*
X158869527Y-67815000D01*
X160570473Y-67815000D01*
X162238737Y-67483162D01*
X163810206Y-66832238D01*
X165224492Y-65887242D01*
X166427242Y-64684492D01*
X167372238Y-63270206D01*
X168023162Y-61698737D01*
X168355000Y-60030473D01*
X168355000Y-58920475D01*
X168585000Y-58920475D01*
X168585000Y-59439525D01*
X168686261Y-59948601D01*
X168884893Y-60428141D01*
X169173262Y-60859715D01*
X169540285Y-61226738D01*
X169971859Y-61515107D01*
X170451399Y-61713739D01*
X170960475Y-61815000D01*
X171479525Y-61815000D01*
X171988601Y-61713739D01*
X172468141Y-61515107D01*
X172899715Y-61226738D01*
X173266738Y-60859715D01*
X173555107Y-60428141D01*
X173753739Y-59948601D01*
X173855000Y-59439525D01*
X173855000Y-58920475D01*
X173753739Y-58411399D01*
X173555107Y-57931859D01*
X173266738Y-57500285D01*
X172899715Y-57133262D01*
X172468141Y-56844893D01*
X171988601Y-56646261D01*
X171479525Y-56545000D01*
X170960475Y-56545000D01*
X170451399Y-56646261D01*
X169971859Y-56844893D01*
X169540285Y-57133262D01*
X169173262Y-57500285D01*
X168884893Y-57931859D01*
X168686261Y-58411399D01*
X168585000Y-58920475D01*
X168355000Y-58920475D01*
X168355000Y-58329527D01*
X168023162Y-56661263D01*
X167372238Y-55089794D01*
X166427242Y-53675508D01*
X165224492Y-52472758D01*
X163810206Y-51527762D01*
X162238737Y-50876838D01*
X160570473Y-50545000D01*
X158869527Y-50545000D01*
X157201263Y-50876838D01*
X155629794Y-51527762D01*
X154215508Y-52472758D01*
X153012758Y-53675508D01*
X152067762Y-55089794D01*
X151416838Y-56661263D01*
X151085000Y-58329527D01*
X150719827Y-58329527D01*
X150555107Y-57931859D01*
X150266738Y-57500285D01*
X149899715Y-57133262D01*
X149468141Y-56844893D01*
X148988601Y-56646261D01*
X148479525Y-56545000D01*
X147960475Y-56545000D01*
X147451399Y-56646261D01*
X146971859Y-56844893D01*
X146540285Y-57133262D01*
X146173262Y-57500285D01*
X145884893Y-57931859D01*
X145686261Y-58411399D01*
X145585000Y-58920475D01*
X135022000Y-58920475D01*
X135022000Y-55725374D01*
X137844231Y-55725374D01*
X138144411Y-56163828D01*
X138723356Y-56474296D01*
X139351746Y-56665852D01*
X140005431Y-56731134D01*
X140659293Y-56667634D01*
X141288203Y-56477792D01*
X141867992Y-56168904D01*
X141875589Y-56163828D01*
X142175769Y-55725374D01*
X140010000Y-53559605D01*
X137844231Y-55725374D01*
X135022000Y-55725374D01*
X135022000Y-53375431D01*
X136658866Y-53375431D01*
X136722366Y-54029293D01*
X136912208Y-54658203D01*
X137221096Y-55237992D01*
X137226172Y-55245589D01*
X137664626Y-55545769D01*
X139830395Y-53380000D01*
X140189605Y-53380000D01*
X142355374Y-55545769D01*
X142793828Y-55245589D01*
X143104296Y-54666644D01*
X143295852Y-54038254D01*
X143361134Y-53384569D01*
X143297634Y-52730707D01*
X143107792Y-52101797D01*
X142798904Y-51522008D01*
X142793828Y-51514411D01*
X142355374Y-51214231D01*
X140189605Y-53380000D01*
X139830395Y-53380000D01*
X137664626Y-51214231D01*
X137226172Y-51514411D01*
X136915704Y-52093356D01*
X136724148Y-52721746D01*
X136658866Y-53375431D01*
X135022000Y-53375431D01*
X135022000Y-51034626D01*
X137844231Y-51034626D01*
X140010000Y-53200395D01*
X142175769Y-51034626D01*
X141875589Y-50596172D01*
X141335388Y-50306481D01*
X145093124Y-50306481D01*
X145405308Y-50755177D01*
X146001259Y-51075612D01*
X146648273Y-51273626D01*
X147321484Y-51341610D01*
X147995023Y-51276949D01*
X148643006Y-51082130D01*
X149240530Y-50764639D01*
X149254692Y-50755177D01*
X149566876Y-50306481D01*
X169093124Y-50306481D01*
X169405308Y-50755177D01*
X170001259Y-51075612D01*
X170648273Y-51273626D01*
X171321484Y-51341610D01*
X171995023Y-51276949D01*
X172643006Y-51082130D01*
X173240530Y-50764639D01*
X173254692Y-50755177D01*
X173566876Y-50306481D01*
X171330000Y-48069605D01*
X169093124Y-50306481D01*
X149566876Y-50306481D01*
X147330000Y-48069605D01*
X145093124Y-50306481D01*
X141335388Y-50306481D01*
X141296644Y-50285704D01*
X140668254Y-50094148D01*
X140014569Y-50028866D01*
X139360707Y-50092366D01*
X138731797Y-50282208D01*
X138152008Y-50591096D01*
X138144411Y-50596172D01*
X137844231Y-51034626D01*
X135022000Y-51034626D01*
X135022000Y-47881484D01*
X143878390Y-47881484D01*
X143943051Y-48555023D01*
X144137870Y-49203006D01*
X144455361Y-49800530D01*
X144464823Y-49814692D01*
X144913519Y-50126876D01*
X147150395Y-47890000D01*
X147509605Y-47890000D01*
X149746481Y-50126876D01*
X150195177Y-49814692D01*
X150515612Y-49218741D01*
X150713626Y-48571727D01*
X150781610Y-47898516D01*
X150779975Y-47881484D01*
X167878390Y-47881484D01*
X167943051Y-48555023D01*
X168137870Y-49203006D01*
X168455361Y-49800530D01*
X168464823Y-49814692D01*
X168913519Y-50126876D01*
X171150395Y-47890000D01*
X171509605Y-47890000D01*
X173746481Y-50126876D01*
X174195177Y-49814692D01*
X174515612Y-49218741D01*
X174713626Y-48571727D01*
X174781610Y-47898516D01*
X174716949Y-47224977D01*
X174522130Y-46576994D01*
X174204639Y-45979470D01*
X174195177Y-45965308D01*
X173746481Y-45653124D01*
X171509605Y-47890000D01*
X171150395Y-47890000D01*
X168913519Y-45653124D01*
X168464823Y-45965308D01*
X168144388Y-46561259D01*
X167946374Y-47208273D01*
X167878390Y-47881484D01*
X150779975Y-47881484D01*
X150716949Y-47224977D01*
X150522130Y-46576994D01*
X150204639Y-45979470D01*
X150195177Y-45965308D01*
X149746481Y-45653124D01*
X147509605Y-47890000D01*
X147150395Y-47890000D01*
X144913519Y-45653124D01*
X144464823Y-45965308D01*
X144144388Y-46561259D01*
X143946374Y-47208273D01*
X143878390Y-47881484D01*
X135022000Y-47881484D01*
X135022000Y-45473519D01*
X145093124Y-45473519D01*
X147330000Y-47710395D01*
X149566876Y-45473519D01*
X169093124Y-45473519D01*
X171330000Y-47710395D01*
X173566876Y-45473519D01*
X173254692Y-45024823D01*
X172658741Y-44704388D01*
X172011727Y-44506374D01*
X171338516Y-44438390D01*
X170664977Y-44503051D01*
X170016994Y-44697870D01*
X169419470Y-45015361D01*
X169405308Y-45024823D01*
X169093124Y-45473519D01*
X149566876Y-45473519D01*
X149254692Y-45024823D01*
X148658741Y-44704388D01*
X148011727Y-44506374D01*
X147338516Y-44438390D01*
X146664977Y-44503051D01*
X146016994Y-44697870D01*
X145419470Y-45015361D01*
X145405308Y-45024823D01*
X145093124Y-45473519D01*
X135022000Y-45473519D01*
X135022000Y-33920475D01*
X145585000Y-33920475D01*
X145585000Y-34439525D01*
X145686261Y-34948601D01*
X145884893Y-35428141D01*
X146173262Y-35859715D01*
X146540285Y-36226738D01*
X146971859Y-36515107D01*
X147451399Y-36713739D01*
X147960475Y-36815000D01*
X148479525Y-36815000D01*
X148988601Y-36713739D01*
X149468141Y-36515107D01*
X149899715Y-36226738D01*
X150266738Y-35859715D01*
X150555107Y-35428141D01*
X150753739Y-34948601D01*
X150855000Y-34439525D01*
X150855000Y-33920475D01*
X150753739Y-33411399D01*
X150719827Y-33329527D01*
X151085000Y-33329527D01*
X151085000Y-35030473D01*
X151416838Y-36698737D01*
X152067762Y-38270206D01*
X153012758Y-39684492D01*
X154215508Y-40887242D01*
X155629794Y-41832238D01*
X157201263Y-42483162D01*
X158869527Y-42815000D01*
X160570473Y-42815000D01*
X162238737Y-42483162D01*
X163810206Y-41832238D01*
X165224492Y-40887242D01*
X166427242Y-39684492D01*
X167372238Y-38270206D01*
X168023162Y-36698737D01*
X168355000Y-35030473D01*
X168355000Y-33920475D01*
X168585000Y-33920475D01*
X168585000Y-34439525D01*
X168686261Y-34948601D01*
X168884893Y-35428141D01*
X169173262Y-35859715D01*
X169540285Y-36226738D01*
X169971859Y-36515107D01*
X170451399Y-36713739D01*
X170960475Y-36815000D01*
X171479525Y-36815000D01*
X171988601Y-36713739D01*
X172468141Y-36515107D01*
X172899715Y-36226738D01*
X173266738Y-35859715D01*
X173555107Y-35428141D01*
X173753739Y-34948601D01*
X173855000Y-34439525D01*
X173855000Y-33920475D01*
X173753739Y-33411399D01*
X173555107Y-32931859D01*
X173266738Y-32500285D01*
X172899715Y-32133262D01*
X172468141Y-31844893D01*
X171988601Y-31646261D01*
X171479525Y-31545000D01*
X170960475Y-31545000D01*
X170451399Y-31646261D01*
X169971859Y-31844893D01*
X169540285Y-32133262D01*
X169173262Y-32500285D01*
X168884893Y-32931859D01*
X168686261Y-33411399D01*
X168585000Y-33920475D01*
X168355000Y-33920475D01*
X168355000Y-33329527D01*
X168023162Y-31661263D01*
X167372238Y-30089794D01*
X166427242Y-28675508D01*
X165224492Y-27472758D01*
X163810206Y-26527762D01*
X162238737Y-25876838D01*
X160570473Y-25545000D01*
X158869527Y-25545000D01*
X157201263Y-25876838D01*
X155629794Y-26527762D01*
X154215508Y-27472758D01*
X153012758Y-28675508D01*
X152067762Y-30089794D01*
X151416838Y-31661263D01*
X151085000Y-33329527D01*
X150719827Y-33329527D01*
X150555107Y-32931859D01*
X150266738Y-32500285D01*
X149899715Y-32133262D01*
X149468141Y-31844893D01*
X148988601Y-31646261D01*
X148479525Y-31545000D01*
X147960475Y-31545000D01*
X147451399Y-31646261D01*
X146971859Y-31844893D01*
X146540285Y-32133262D01*
X146173262Y-32500285D01*
X145884893Y-32931859D01*
X145686261Y-33411399D01*
X145585000Y-33920475D01*
X135022000Y-33920475D01*
X135022000Y-30725374D01*
X137844231Y-30725374D01*
X138144411Y-31163828D01*
X138723356Y-31474296D01*
X139351746Y-31665852D01*
X140005431Y-31731134D01*
X140659293Y-31667634D01*
X141288203Y-31477792D01*
X141867992Y-31168904D01*
X141875589Y-31163828D01*
X142175769Y-30725374D01*
X140010000Y-28559605D01*
X137844231Y-30725374D01*
X135022000Y-30725374D01*
X135022000Y-28375431D01*
X136658866Y-28375431D01*
X136722366Y-29029293D01*
X136912208Y-29658203D01*
X137221096Y-30237992D01*
X137226172Y-30245589D01*
X137664626Y-30545769D01*
X139830395Y-28380000D01*
X140189605Y-28380000D01*
X142355374Y-30545769D01*
X142793828Y-30245589D01*
X143104296Y-29666644D01*
X143295852Y-29038254D01*
X143361134Y-28384569D01*
X143297634Y-27730707D01*
X143107792Y-27101797D01*
X142798904Y-26522008D01*
X142793828Y-26514411D01*
X142355374Y-26214231D01*
X140189605Y-28380000D01*
X139830395Y-28380000D01*
X137664626Y-26214231D01*
X137226172Y-26514411D01*
X136915704Y-27093356D01*
X136724148Y-27721746D01*
X136658866Y-28375431D01*
X135022000Y-28375431D01*
X135022000Y-26034626D01*
X137844231Y-26034626D01*
X140010000Y-28200395D01*
X142175769Y-26034626D01*
X141875589Y-25596172D01*
X141296644Y-25285704D01*
X140668254Y-25094148D01*
X140014569Y-25028866D01*
X139360707Y-25092366D01*
X138731797Y-25282208D01*
X138152008Y-25591096D01*
X138144411Y-25596172D01*
X137844231Y-26034626D01*
X135022000Y-26034626D01*
X135022000Y-5725374D01*
X137844231Y-5725374D01*
X138144411Y-6163828D01*
X138723356Y-6474296D01*
X139351746Y-6665852D01*
X140005431Y-6731134D01*
X140659293Y-6667634D01*
X141288203Y-6477792D01*
X141867992Y-6168904D01*
X141875589Y-6163828D01*
X142175769Y-5725374D01*
X140010000Y-3559605D01*
X137844231Y-5725374D01*
X135022000Y-5725374D01*
X135022000Y-3375431D01*
X136658866Y-3375431D01*
X136722366Y-4029293D01*
X136912208Y-4658203D01*
X137221096Y-5237992D01*
X137226172Y-5245589D01*
X137664626Y-5545769D01*
X139830395Y-3380000D01*
X140189605Y-3380000D01*
X142355374Y-5545769D01*
X142793828Y-5245589D01*
X143104296Y-4666644D01*
X143295852Y-4038254D01*
X143361134Y-3384569D01*
X143297634Y-2730707D01*
X143107792Y-2101797D01*
X142798904Y-1522008D01*
X142793828Y-1514411D01*
X142355374Y-1214231D01*
X140189605Y-3380000D01*
X139830395Y-3380000D01*
X137664626Y-1214231D01*
X137226172Y-1514411D01*
X136915704Y-2093356D01*
X136724148Y-2721746D01*
X136658866Y-3375431D01*
X135022000Y-3375431D01*
X135022000Y-1034626D01*
X137844231Y-1034626D01*
X140010000Y-3200395D01*
X142175769Y-1034626D01*
X141875589Y-596172D01*
X141296644Y-285704D01*
X140668254Y-94148D01*
X140014569Y-28866D01*
X139360707Y-92366D01*
X138731797Y-282208D01*
X138152008Y-591096D01*
X138144411Y-596172D01*
X137844231Y-1034626D01*
X135022000Y-1034626D01*
X135022000Y3269525D01*
X145575000Y3269525D01*
X145575000Y2750475D01*
X145676261Y2241399D01*
X145874893Y1761859D01*
X146163262Y1330285D01*
X146530285Y963262D01*
X146961859Y674893D01*
X147441399Y476261D01*
X147950475Y375000D01*
X148469525Y375000D01*
X148978601Y476261D01*
X149458141Y674893D01*
X149889715Y963262D01*
X150256738Y1330285D01*
X150545107Y1761859D01*
X150743739Y2241399D01*
X150791899Y2483519D01*
X157093124Y2483519D01*
X157405308Y2034823D01*
X158001259Y1714388D01*
X158648273Y1516374D01*
X159321484Y1448390D01*
X159995023Y1513051D01*
X160643006Y1707870D01*
X161240530Y2025361D01*
X161254692Y2034823D01*
X161566876Y2483519D01*
X159330000Y4720395D01*
X157093124Y2483519D01*
X150791899Y2483519D01*
X150845000Y2750475D01*
X150845000Y3269525D01*
X150743739Y3778601D01*
X150545107Y4258141D01*
X150256738Y4689715D01*
X150037937Y4908516D01*
X155878390Y4908516D01*
X155943051Y4234977D01*
X156137870Y3586994D01*
X156455361Y2989470D01*
X156464823Y2975308D01*
X156913519Y2663124D01*
X159150395Y4900000D01*
X159509605Y4900000D01*
X161746481Y2663124D01*
X162195177Y2975308D01*
X162515612Y3571259D01*
X162713626Y4218273D01*
X162781610Y4891484D01*
X162716949Y5565023D01*
X162522130Y6213006D01*
X162204639Y6810530D01*
X162195177Y6824692D01*
X161746481Y7136876D01*
X159509605Y4900000D01*
X159150395Y4900000D01*
X156913519Y7136876D01*
X156464823Y6824692D01*
X156144388Y6228741D01*
X155946374Y5581727D01*
X155878390Y4908516D01*
X150037937Y4908516D01*
X149889715Y5056738D01*
X149458141Y5345107D01*
X148978601Y5543739D01*
X148469525Y5645000D01*
X147950475Y5645000D01*
X147441399Y5543739D01*
X146961859Y5345107D01*
X146530285Y5056738D01*
X146163262Y4689715D01*
X145874893Y4258141D01*
X145676261Y3778601D01*
X145575000Y3269525D01*
X135022000Y3269525D01*
X135022000Y15360473D01*
X139575000Y15360473D01*
X139575000Y13659527D01*
X139906838Y11991263D01*
X140557762Y10419794D01*
X141502758Y9005508D01*
X142705508Y7802758D01*
X144119794Y6857762D01*
X145691263Y6206838D01*
X147359527Y5875000D01*
X149060473Y5875000D01*
X150728737Y6206838D01*
X152300206Y6857762D01*
X152986727Y7316481D01*
X157093124Y7316481D01*
X159330000Y5079605D01*
X161566876Y7316481D01*
X161254692Y7765177D01*
X160658741Y8085612D01*
X160011727Y8283626D01*
X159338516Y8351610D01*
X158664977Y8286949D01*
X158016994Y8092130D01*
X157419470Y7774639D01*
X157405308Y7765177D01*
X157093124Y7316481D01*
X152986727Y7316481D01*
X153714492Y7802758D01*
X154917242Y9005508D01*
X155862238Y10419794D01*
X156513162Y11991263D01*
X156845000Y13659527D01*
X156845000Y15360473D01*
X156513162Y17028737D01*
X155862238Y18600206D01*
X154917242Y20014492D01*
X154423265Y20508469D01*
X172725000Y20508469D01*
X172725000Y19851531D01*
X172853162Y19207216D01*
X173104561Y18600285D01*
X173469536Y18054061D01*
X173934061Y17589536D01*
X174480285Y17224561D01*
X175087216Y16973162D01*
X175731531Y16845000D01*
X176388469Y16845000D01*
X177032784Y16973162D01*
X177639715Y17224561D01*
X178185939Y17589536D01*
X178650464Y18054061D01*
X179015439Y18600285D01*
X179266838Y19207216D01*
X179395000Y19851531D01*
X179395000Y20508469D01*
X179266838Y21152784D01*
X179015439Y21759715D01*
X178650464Y22305939D01*
X178185939Y22770464D01*
X177639715Y23135439D01*
X177032784Y23386838D01*
X176388469Y23515000D01*
X175731531Y23515000D01*
X175087216Y23386838D01*
X174480285Y23135439D01*
X173934061Y22770464D01*
X173469536Y22305939D01*
X173104561Y21759715D01*
X172853162Y21152784D01*
X172725000Y20508469D01*
X154423265Y20508469D01*
X153714492Y21217242D01*
X152300206Y22162238D01*
X150728737Y22813162D01*
X149060473Y23145000D01*
X147359527Y23145000D01*
X145691263Y22813162D01*
X144119794Y22162238D01*
X142705508Y21217242D01*
X141502758Y20014492D01*
X140557762Y18600206D01*
X139906838Y17028737D01*
X139575000Y15360473D01*
X135022000Y15360473D01*
X135022000Y26269525D01*
X145575000Y26269525D01*
X145575000Y25750475D01*
X145676261Y25241399D01*
X145874893Y24761859D01*
X146163262Y24330285D01*
X146530285Y23963262D01*
X146961859Y23674893D01*
X147441399Y23476261D01*
X147950475Y23375000D01*
X148469525Y23375000D01*
X148978601Y23476261D01*
X149458141Y23674893D01*
X149889715Y23963262D01*
X150256738Y24330285D01*
X150545107Y24761859D01*
X150743739Y25241399D01*
X150845000Y25750475D01*
X150845000Y26269525D01*
X150743739Y26778601D01*
X150545107Y27258141D01*
X150256738Y27689715D01*
X149889715Y28056738D01*
X149458141Y28345107D01*
X148978601Y28543739D01*
X148469525Y28645000D01*
X147950475Y28645000D01*
X147441399Y28543739D01*
X146961859Y28345107D01*
X146530285Y28056738D01*
X146163262Y27689715D01*
X145874893Y27258141D01*
X145676261Y26778601D01*
X145575000Y26269525D01*
X135022000Y26269525D01*
X135022000Y39121287D01*
X135343286Y38698891D01*
X135848020Y38252460D01*
X136430150Y37913075D01*
X137067305Y37693779D01*
X137735000Y37603000D01*
X140235000Y37603000D01*
X140235000Y40911000D01*
X140489000Y40911000D01*
X140489000Y37603000D01*
X142989000Y37603000D01*
X143656695Y37693779D01*
X144293850Y37913075D01*
X144875980Y38252460D01*
X145380714Y38698891D01*
X145788655Y39235213D01*
X146084126Y39840815D01*
X146232522Y40375579D01*
X172491478Y40375579D01*
X172639874Y39840815D01*
X172935345Y39235213D01*
X173343286Y38698891D01*
X173848020Y38252460D01*
X174430150Y37913075D01*
X175067305Y37693779D01*
X175735000Y37603000D01*
X178235000Y37603000D01*
X178235000Y40911000D01*
X172588212Y40911000D01*
X172491478Y40375579D01*
X146232522Y40375579D01*
X146135788Y40911000D01*
X140489000Y40911000D01*
X140235000Y40911000D01*
X140215000Y40911000D01*
X140215000Y41165000D01*
X140235000Y41165000D01*
X140235000Y41185000D01*
X140489000Y41185000D01*
X140489000Y41165000D01*
X146135788Y41165000D01*
X146232522Y41700421D01*
X146084126Y42235185D01*
X145788655Y42840787D01*
X145380714Y43377109D01*
X144875980Y43823540D01*
X144782568Y43878000D01*
X173941432Y43878000D01*
X173848020Y43823540D01*
G04 #@! TA.AperFunction,Conductor*
D16*
G36*
X173848020Y43823540D02*
G01*
X173343286Y43377109D01*
X172935345Y42840787D01*
X172639874Y42235185D01*
X172491478Y41700421D01*
X172588212Y41165000D01*
X178235000Y41165000D01*
X178235000Y41185000D01*
X178489000Y41185000D01*
X178489000Y41165000D01*
X178509000Y41165000D01*
X178509000Y40911000D01*
X178489000Y40911000D01*
X178489000Y37603000D01*
X180989000Y37603000D01*
X181656695Y37693779D01*
X182293850Y37913075D01*
X182875980Y38252460D01*
X183380714Y38698891D01*
X183702001Y39121289D01*
X183702000Y-150045287D01*
X183380714Y-149622891D01*
X182875980Y-149176460D01*
X182293850Y-148837075D01*
X181656695Y-148617779D01*
X180989000Y-148527000D01*
X178489000Y-148527000D01*
X178489000Y-151835000D01*
X178509000Y-151835000D01*
X178509000Y-152089000D01*
X178489000Y-152089000D01*
X178489000Y-152109000D01*
X178235000Y-152109000D01*
X178235000Y-152089000D01*
X172588212Y-152089000D01*
X172491478Y-152624421D01*
X172639874Y-153159185D01*
X172935345Y-153764787D01*
X173343286Y-154301109D01*
X173848020Y-154747540D01*
X173941432Y-154802000D01*
X144782568Y-154802000D01*
X144875980Y-154747540D01*
X145380714Y-154301109D01*
X145788655Y-153764787D01*
X146084126Y-153159185D01*
X146232522Y-152624421D01*
X146135788Y-152089000D01*
X140489000Y-152089000D01*
X140489000Y-152109000D01*
X140235000Y-152109000D01*
X140235000Y-152089000D01*
X140215000Y-152089000D01*
X140215000Y-151835000D01*
X140235000Y-151835000D01*
X140235000Y-148527000D01*
X140489000Y-148527000D01*
X140489000Y-151835000D01*
X146135788Y-151835000D01*
X146232522Y-151299579D01*
X172491478Y-151299579D01*
X172588212Y-151835000D01*
X178235000Y-151835000D01*
X178235000Y-148527000D01*
X175735000Y-148527000D01*
X175067305Y-148617779D01*
X174430150Y-148837075D01*
X173848020Y-149176460D01*
X173343286Y-149622891D01*
X172935345Y-150159213D01*
X172639874Y-150764815D01*
X172491478Y-151299579D01*
X146232522Y-151299579D01*
X146084126Y-150764815D01*
X145788655Y-150159213D01*
X145380714Y-149622891D01*
X144875980Y-149176460D01*
X144293850Y-148837075D01*
X143656695Y-148617779D01*
X142989000Y-148527000D01*
X140489000Y-148527000D01*
X140235000Y-148527000D01*
X137735000Y-148527000D01*
X137067305Y-148617779D01*
X136430150Y-148837075D01*
X135848020Y-149176460D01*
X135343286Y-149622891D01*
X135022000Y-150045287D01*
X135022000Y-133920475D01*
X145585000Y-133920475D01*
X145585000Y-134439525D01*
X145686261Y-134948601D01*
X145884893Y-135428141D01*
X146173262Y-135859715D01*
X146540285Y-136226738D01*
X146971859Y-136515107D01*
X147451399Y-136713739D01*
X147960475Y-136815000D01*
X148479525Y-136815000D01*
X148988601Y-136713739D01*
X149468141Y-136515107D01*
X149899715Y-136226738D01*
X150266738Y-135859715D01*
X150555107Y-135428141D01*
X150753739Y-134948601D01*
X150855000Y-134439525D01*
X150855000Y-133920475D01*
X150753739Y-133411399D01*
X150719827Y-133329527D01*
X151085000Y-133329527D01*
X151085000Y-135030473D01*
X151416838Y-136698737D01*
X152067762Y-138270206D01*
X153012758Y-139684492D01*
X154215508Y-140887242D01*
X155629794Y-141832238D01*
X157201263Y-142483162D01*
X158869527Y-142815000D01*
X160570473Y-142815000D01*
X162238737Y-142483162D01*
X163810206Y-141832238D01*
X165224492Y-140887242D01*
X166427242Y-139684492D01*
X167372238Y-138270206D01*
X168023162Y-136698737D01*
X168355000Y-135030473D01*
X168355000Y-133920475D01*
X168585000Y-133920475D01*
X168585000Y-134439525D01*
X168686261Y-134948601D01*
X168884893Y-135428141D01*
X169173262Y-135859715D01*
X169540285Y-136226738D01*
X169971859Y-136515107D01*
X170451399Y-136713739D01*
X170960475Y-136815000D01*
X171479525Y-136815000D01*
X171988601Y-136713739D01*
X172468141Y-136515107D01*
X172899715Y-136226738D01*
X173266738Y-135859715D01*
X173555107Y-135428141D01*
X173753739Y-134948601D01*
X173855000Y-134439525D01*
X173855000Y-133920475D01*
X173753739Y-133411399D01*
X173555107Y-132931859D01*
X173266738Y-132500285D01*
X172899715Y-132133262D01*
X172468141Y-131844893D01*
X171988601Y-131646261D01*
X171479525Y-131545000D01*
X170960475Y-131545000D01*
X170451399Y-131646261D01*
X169971859Y-131844893D01*
X169540285Y-132133262D01*
X169173262Y-132500285D01*
X168884893Y-132931859D01*
X168686261Y-133411399D01*
X168585000Y-133920475D01*
X168355000Y-133920475D01*
X168355000Y-133329527D01*
X168023162Y-131661263D01*
X167372238Y-130089794D01*
X166427242Y-128675508D01*
X165224492Y-127472758D01*
X163810206Y-126527762D01*
X162238737Y-125876838D01*
X160570473Y-125545000D01*
X158869527Y-125545000D01*
X157201263Y-125876838D01*
X155629794Y-126527762D01*
X154215508Y-127472758D01*
X153012758Y-128675508D01*
X152067762Y-130089794D01*
X151416838Y-131661263D01*
X151085000Y-133329527D01*
X150719827Y-133329527D01*
X150555107Y-132931859D01*
X150266738Y-132500285D01*
X149899715Y-132133262D01*
X149468141Y-131844893D01*
X148988601Y-131646261D01*
X148479525Y-131545000D01*
X147960475Y-131545000D01*
X147451399Y-131646261D01*
X146971859Y-131844893D01*
X146540285Y-132133262D01*
X146173262Y-132500285D01*
X145884893Y-132931859D01*
X145686261Y-133411399D01*
X145585000Y-133920475D01*
X135022000Y-133920475D01*
X135022000Y-130725374D01*
X137844231Y-130725374D01*
X138144411Y-131163828D01*
X138723356Y-131474296D01*
X139351746Y-131665852D01*
X140005431Y-131731134D01*
X140659293Y-131667634D01*
X141288203Y-131477792D01*
X141867992Y-131168904D01*
X141875589Y-131163828D01*
X142175769Y-130725374D01*
X140010000Y-128559605D01*
X137844231Y-130725374D01*
X135022000Y-130725374D01*
X135022000Y-128375431D01*
X136658866Y-128375431D01*
X136722366Y-129029293D01*
X136912208Y-129658203D01*
X137221096Y-130237992D01*
X137226172Y-130245589D01*
X137664626Y-130545769D01*
X139830395Y-128380000D01*
X140189605Y-128380000D01*
X142355374Y-130545769D01*
X142793828Y-130245589D01*
X143104296Y-129666644D01*
X143295852Y-129038254D01*
X143361134Y-128384569D01*
X143297634Y-127730707D01*
X143107792Y-127101797D01*
X142798904Y-126522008D01*
X142793828Y-126514411D01*
X142355374Y-126214231D01*
X140189605Y-128380000D01*
X139830395Y-128380000D01*
X137664626Y-126214231D01*
X137226172Y-126514411D01*
X136915704Y-127093356D01*
X136724148Y-127721746D01*
X136658866Y-128375431D01*
X135022000Y-128375431D01*
X135022000Y-126034626D01*
X137844231Y-126034626D01*
X140010000Y-128200395D01*
X142175769Y-126034626D01*
X141875589Y-125596172D01*
X141296644Y-125285704D01*
X140668254Y-125094148D01*
X140014569Y-125028866D01*
X139360707Y-125092366D01*
X138731797Y-125282208D01*
X138152008Y-125591096D01*
X138144411Y-125596172D01*
X137844231Y-126034626D01*
X135022000Y-126034626D01*
X135022000Y-123796481D01*
X145113124Y-123796481D01*
X145425308Y-124245177D01*
X146021259Y-124565612D01*
X146668273Y-124763626D01*
X147341484Y-124831610D01*
X148015023Y-124766949D01*
X148663006Y-124572130D01*
X149260530Y-124254639D01*
X149274692Y-124245177D01*
X149586876Y-123796481D01*
X169113124Y-123796481D01*
X169425308Y-124245177D01*
X170021259Y-124565612D01*
X170668273Y-124763626D01*
X171341484Y-124831610D01*
X172015023Y-124766949D01*
X172663006Y-124572130D01*
X173260530Y-124254639D01*
X173274692Y-124245177D01*
X173586876Y-123796481D01*
X171350000Y-121559605D01*
X169113124Y-123796481D01*
X149586876Y-123796481D01*
X147350000Y-121559605D01*
X145113124Y-123796481D01*
X135022000Y-123796481D01*
X135022000Y-121371484D01*
X143898390Y-121371484D01*
X143963051Y-122045023D01*
X144157870Y-122693006D01*
X144475361Y-123290530D01*
X144484823Y-123304692D01*
X144933519Y-123616876D01*
X147170395Y-121380000D01*
X147529605Y-121380000D01*
X149766481Y-123616876D01*
X150215177Y-123304692D01*
X150535612Y-122708741D01*
X150733626Y-122061727D01*
X150801610Y-121388516D01*
X150799975Y-121371484D01*
X167898390Y-121371484D01*
X167963051Y-122045023D01*
X168157870Y-122693006D01*
X168475361Y-123290530D01*
X168484823Y-123304692D01*
X168933519Y-123616876D01*
X171170395Y-121380000D01*
X171529605Y-121380000D01*
X173766481Y-123616876D01*
X174215177Y-123304692D01*
X174535612Y-122708741D01*
X174733626Y-122061727D01*
X174801610Y-121388516D01*
X174736949Y-120714977D01*
X174542130Y-120066994D01*
X174224639Y-119469470D01*
X174215177Y-119455308D01*
X173766481Y-119143124D01*
X171529605Y-121380000D01*
X171170395Y-121380000D01*
X168933519Y-119143124D01*
X168484823Y-119455308D01*
X168164388Y-120051259D01*
X167966374Y-120698273D01*
X167898390Y-121371484D01*
X150799975Y-121371484D01*
X150736949Y-120714977D01*
X150542130Y-120066994D01*
X150224639Y-119469470D01*
X150215177Y-119455308D01*
X149766481Y-119143124D01*
X147529605Y-121380000D01*
X147170395Y-121380000D01*
X144933519Y-119143124D01*
X144484823Y-119455308D01*
X144164388Y-120051259D01*
X143966374Y-120698273D01*
X143898390Y-121371484D01*
X135022000Y-121371484D01*
X135022000Y-118963519D01*
X145113124Y-118963519D01*
X147350000Y-121200395D01*
X149586876Y-118963519D01*
X169113124Y-118963519D01*
X171350000Y-121200395D01*
X173586876Y-118963519D01*
X173274692Y-118514823D01*
X172678741Y-118194388D01*
X172031727Y-117996374D01*
X171358516Y-117928390D01*
X170684977Y-117993051D01*
X170036994Y-118187870D01*
X169439470Y-118505361D01*
X169425308Y-118514823D01*
X169113124Y-118963519D01*
X149586876Y-118963519D01*
X149274692Y-118514823D01*
X148678741Y-118194388D01*
X148031727Y-117996374D01*
X147358516Y-117928390D01*
X146684977Y-117993051D01*
X146036994Y-118187870D01*
X145439470Y-118505361D01*
X145425308Y-118514823D01*
X145113124Y-118963519D01*
X135022000Y-118963519D01*
X135022000Y-108920475D01*
X145585000Y-108920475D01*
X145585000Y-109439525D01*
X145686261Y-109948601D01*
X145884893Y-110428141D01*
X146173262Y-110859715D01*
X146540285Y-111226738D01*
X146971859Y-111515107D01*
X147451399Y-111713739D01*
X147960475Y-111815000D01*
X148479525Y-111815000D01*
X148988601Y-111713739D01*
X149468141Y-111515107D01*
X149899715Y-111226738D01*
X150266738Y-110859715D01*
X150555107Y-110428141D01*
X150753739Y-109948601D01*
X150855000Y-109439525D01*
X150855000Y-108920475D01*
X150753739Y-108411399D01*
X150719827Y-108329527D01*
X151085000Y-108329527D01*
X151085000Y-110030473D01*
X151416838Y-111698737D01*
X152067762Y-113270206D01*
X153012758Y-114684492D01*
X154215508Y-115887242D01*
X155629794Y-116832238D01*
X157201263Y-117483162D01*
X158869527Y-117815000D01*
X160570473Y-117815000D01*
X162238737Y-117483162D01*
X163810206Y-116832238D01*
X165224492Y-115887242D01*
X166427242Y-114684492D01*
X167372238Y-113270206D01*
X168023162Y-111698737D01*
X168355000Y-110030473D01*
X168355000Y-108920475D01*
X168585000Y-108920475D01*
X168585000Y-109439525D01*
X168686261Y-109948601D01*
X168884893Y-110428141D01*
X169173262Y-110859715D01*
X169540285Y-111226738D01*
X169971859Y-111515107D01*
X170451399Y-111713739D01*
X170960475Y-111815000D01*
X171479525Y-111815000D01*
X171988601Y-111713739D01*
X172468141Y-111515107D01*
X172899715Y-111226738D01*
X173266738Y-110859715D01*
X173555107Y-110428141D01*
X173753739Y-109948601D01*
X173855000Y-109439525D01*
X173855000Y-108920475D01*
X173753739Y-108411399D01*
X173555107Y-107931859D01*
X173266738Y-107500285D01*
X172899715Y-107133262D01*
X172468141Y-106844893D01*
X171988601Y-106646261D01*
X171479525Y-106545000D01*
X170960475Y-106545000D01*
X170451399Y-106646261D01*
X169971859Y-106844893D01*
X169540285Y-107133262D01*
X169173262Y-107500285D01*
X168884893Y-107931859D01*
X168686261Y-108411399D01*
X168585000Y-108920475D01*
X168355000Y-108920475D01*
X168355000Y-108329527D01*
X168023162Y-106661263D01*
X167372238Y-105089794D01*
X166427242Y-103675508D01*
X165224492Y-102472758D01*
X163810206Y-101527762D01*
X162238737Y-100876838D01*
X160570473Y-100545000D01*
X158869527Y-100545000D01*
X157201263Y-100876838D01*
X155629794Y-101527762D01*
X154215508Y-102472758D01*
X153012758Y-103675508D01*
X152067762Y-105089794D01*
X151416838Y-106661263D01*
X151085000Y-108329527D01*
X150719827Y-108329527D01*
X150555107Y-107931859D01*
X150266738Y-107500285D01*
X149899715Y-107133262D01*
X149468141Y-106844893D01*
X148988601Y-106646261D01*
X148479525Y-106545000D01*
X147960475Y-106545000D01*
X147451399Y-106646261D01*
X146971859Y-106844893D01*
X146540285Y-107133262D01*
X146173262Y-107500285D01*
X145884893Y-107931859D01*
X145686261Y-108411399D01*
X145585000Y-108920475D01*
X135022000Y-108920475D01*
X135022000Y-105725374D01*
X137844231Y-105725374D01*
X138144411Y-106163828D01*
X138723356Y-106474296D01*
X139351746Y-106665852D01*
X140005431Y-106731134D01*
X140659293Y-106667634D01*
X141288203Y-106477792D01*
X141867992Y-106168904D01*
X141875589Y-106163828D01*
X142175769Y-105725374D01*
X140010000Y-103559605D01*
X137844231Y-105725374D01*
X135022000Y-105725374D01*
X135022000Y-103375431D01*
X136658866Y-103375431D01*
X136722366Y-104029293D01*
X136912208Y-104658203D01*
X137221096Y-105237992D01*
X137226172Y-105245589D01*
X137664626Y-105545769D01*
X139830395Y-103380000D01*
X140189605Y-103380000D01*
X142355374Y-105545769D01*
X142793828Y-105245589D01*
X143104296Y-104666644D01*
X143295852Y-104038254D01*
X143361134Y-103384569D01*
X143297634Y-102730707D01*
X143107792Y-102101797D01*
X142798904Y-101522008D01*
X142793828Y-101514411D01*
X142355374Y-101214231D01*
X140189605Y-103380000D01*
X139830395Y-103380000D01*
X137664626Y-101214231D01*
X137226172Y-101514411D01*
X136915704Y-102093356D01*
X136724148Y-102721746D01*
X136658866Y-103375431D01*
X135022000Y-103375431D01*
X135022000Y-101034626D01*
X137844231Y-101034626D01*
X140010000Y-103200395D01*
X142175769Y-101034626D01*
X141875589Y-100596172D01*
X141296644Y-100285704D01*
X140668254Y-100094148D01*
X140014569Y-100028866D01*
X139360707Y-100092366D01*
X138731797Y-100282208D01*
X138152008Y-100591096D01*
X138144411Y-100596172D01*
X137844231Y-101034626D01*
X135022000Y-101034626D01*
X135022000Y-83920475D01*
X145585000Y-83920475D01*
X145585000Y-84439525D01*
X145686261Y-84948601D01*
X145884893Y-85428141D01*
X146173262Y-85859715D01*
X146540285Y-86226738D01*
X146971859Y-86515107D01*
X147451399Y-86713739D01*
X147960475Y-86815000D01*
X148479525Y-86815000D01*
X148988601Y-86713739D01*
X149468141Y-86515107D01*
X149899715Y-86226738D01*
X150266738Y-85859715D01*
X150555107Y-85428141D01*
X150753739Y-84948601D01*
X150855000Y-84439525D01*
X150855000Y-83920475D01*
X150753739Y-83411399D01*
X150719827Y-83329527D01*
X151085000Y-83329527D01*
X151085000Y-85030473D01*
X151416838Y-86698737D01*
X152067762Y-88270206D01*
X153012758Y-89684492D01*
X154215508Y-90887242D01*
X155629794Y-91832238D01*
X157201263Y-92483162D01*
X158869527Y-92815000D01*
X160570473Y-92815000D01*
X162238737Y-92483162D01*
X163810206Y-91832238D01*
X165224492Y-90887242D01*
X166427242Y-89684492D01*
X167372238Y-88270206D01*
X168023162Y-86698737D01*
X168355000Y-85030473D01*
X168355000Y-83920475D01*
X168585000Y-83920475D01*
X168585000Y-84439525D01*
X168686261Y-84948601D01*
X168884893Y-85428141D01*
X169173262Y-85859715D01*
X169540285Y-86226738D01*
X169971859Y-86515107D01*
X170451399Y-86713739D01*
X170960475Y-86815000D01*
X171479525Y-86815000D01*
X171988601Y-86713739D01*
X172468141Y-86515107D01*
X172899715Y-86226738D01*
X173266738Y-85859715D01*
X173555107Y-85428141D01*
X173753739Y-84948601D01*
X173855000Y-84439525D01*
X173855000Y-83920475D01*
X173753739Y-83411399D01*
X173555107Y-82931859D01*
X173266738Y-82500285D01*
X172899715Y-82133262D01*
X172468141Y-81844893D01*
X171988601Y-81646261D01*
X171479525Y-81545000D01*
X170960475Y-81545000D01*
X170451399Y-81646261D01*
X169971859Y-81844893D01*
X169540285Y-82133262D01*
X169173262Y-82500285D01*
X168884893Y-82931859D01*
X168686261Y-83411399D01*
X168585000Y-83920475D01*
X168355000Y-83920475D01*
X168355000Y-83329527D01*
X168023162Y-81661263D01*
X167372238Y-80089794D01*
X166427242Y-78675508D01*
X165224492Y-77472758D01*
X163810206Y-76527762D01*
X162238737Y-75876838D01*
X160570473Y-75545000D01*
X158869527Y-75545000D01*
X157201263Y-75876838D01*
X155629794Y-76527762D01*
X154215508Y-77472758D01*
X153012758Y-78675508D01*
X152067762Y-80089794D01*
X151416838Y-81661263D01*
X151085000Y-83329527D01*
X150719827Y-83329527D01*
X150555107Y-82931859D01*
X150266738Y-82500285D01*
X149899715Y-82133262D01*
X149468141Y-81844893D01*
X148988601Y-81646261D01*
X148479525Y-81545000D01*
X147960475Y-81545000D01*
X147451399Y-81646261D01*
X146971859Y-81844893D01*
X146540285Y-82133262D01*
X146173262Y-82500285D01*
X145884893Y-82931859D01*
X145686261Y-83411399D01*
X145585000Y-83920475D01*
X135022000Y-83920475D01*
X135022000Y-80725374D01*
X137844231Y-80725374D01*
X138144411Y-81163828D01*
X138723356Y-81474296D01*
X139351746Y-81665852D01*
X140005431Y-81731134D01*
X140659293Y-81667634D01*
X141288203Y-81477792D01*
X141867992Y-81168904D01*
X141875589Y-81163828D01*
X142175769Y-80725374D01*
X140010000Y-78559605D01*
X137844231Y-80725374D01*
X135022000Y-80725374D01*
X135022000Y-78375431D01*
X136658866Y-78375431D01*
X136722366Y-79029293D01*
X136912208Y-79658203D01*
X137221096Y-80237992D01*
X137226172Y-80245589D01*
X137664626Y-80545769D01*
X139830395Y-78380000D01*
X140189605Y-78380000D01*
X142355374Y-80545769D01*
X142793828Y-80245589D01*
X143104296Y-79666644D01*
X143295852Y-79038254D01*
X143361134Y-78384569D01*
X143297634Y-77730707D01*
X143107792Y-77101797D01*
X142798904Y-76522008D01*
X142793828Y-76514411D01*
X142355374Y-76214231D01*
X140189605Y-78380000D01*
X139830395Y-78380000D01*
X137664626Y-76214231D01*
X137226172Y-76514411D01*
X136915704Y-77093356D01*
X136724148Y-77721746D01*
X136658866Y-78375431D01*
X135022000Y-78375431D01*
X135022000Y-76034626D01*
X137844231Y-76034626D01*
X140010000Y-78200395D01*
X142175769Y-76034626D01*
X141875589Y-75596172D01*
X141296644Y-75285704D01*
X140668254Y-75094148D01*
X140014569Y-75028866D01*
X139360707Y-75092366D01*
X138731797Y-75282208D01*
X138152008Y-75591096D01*
X138144411Y-75596172D01*
X137844231Y-76034626D01*
X135022000Y-76034626D01*
X135022000Y-58920475D01*
X145585000Y-58920475D01*
X145585000Y-59439525D01*
X145686261Y-59948601D01*
X145884893Y-60428141D01*
X146173262Y-60859715D01*
X146540285Y-61226738D01*
X146971859Y-61515107D01*
X147451399Y-61713739D01*
X147960475Y-61815000D01*
X148479525Y-61815000D01*
X148988601Y-61713739D01*
X149468141Y-61515107D01*
X149899715Y-61226738D01*
X150266738Y-60859715D01*
X150555107Y-60428141D01*
X150753739Y-59948601D01*
X150855000Y-59439525D01*
X150855000Y-58920475D01*
X150753739Y-58411399D01*
X150719827Y-58329527D01*
X151085000Y-58329527D01*
X151085000Y-60030473D01*
X151416838Y-61698737D01*
X152067762Y-63270206D01*
X153012758Y-64684492D01*
X154215508Y-65887242D01*
X155629794Y-66832238D01*
X157201263Y-67483162D01*
X158869527Y-67815000D01*
X160570473Y-67815000D01*
X162238737Y-67483162D01*
X163810206Y-66832238D01*
X165224492Y-65887242D01*
X166427242Y-64684492D01*
X167372238Y-63270206D01*
X168023162Y-61698737D01*
X168355000Y-60030473D01*
X168355000Y-58920475D01*
X168585000Y-58920475D01*
X168585000Y-59439525D01*
X168686261Y-59948601D01*
X168884893Y-60428141D01*
X169173262Y-60859715D01*
X169540285Y-61226738D01*
X169971859Y-61515107D01*
X170451399Y-61713739D01*
X170960475Y-61815000D01*
X171479525Y-61815000D01*
X171988601Y-61713739D01*
X172468141Y-61515107D01*
X172899715Y-61226738D01*
X173266738Y-60859715D01*
X173555107Y-60428141D01*
X173753739Y-59948601D01*
X173855000Y-59439525D01*
X173855000Y-58920475D01*
X173753739Y-58411399D01*
X173555107Y-57931859D01*
X173266738Y-57500285D01*
X172899715Y-57133262D01*
X172468141Y-56844893D01*
X171988601Y-56646261D01*
X171479525Y-56545000D01*
X170960475Y-56545000D01*
X170451399Y-56646261D01*
X169971859Y-56844893D01*
X169540285Y-57133262D01*
X169173262Y-57500285D01*
X168884893Y-57931859D01*
X168686261Y-58411399D01*
X168585000Y-58920475D01*
X168355000Y-58920475D01*
X168355000Y-58329527D01*
X168023162Y-56661263D01*
X167372238Y-55089794D01*
X166427242Y-53675508D01*
X165224492Y-52472758D01*
X163810206Y-51527762D01*
X162238737Y-50876838D01*
X160570473Y-50545000D01*
X158869527Y-50545000D01*
X157201263Y-50876838D01*
X155629794Y-51527762D01*
X154215508Y-52472758D01*
X153012758Y-53675508D01*
X152067762Y-55089794D01*
X151416838Y-56661263D01*
X151085000Y-58329527D01*
X150719827Y-58329527D01*
X150555107Y-57931859D01*
X150266738Y-57500285D01*
X149899715Y-57133262D01*
X149468141Y-56844893D01*
X148988601Y-56646261D01*
X148479525Y-56545000D01*
X147960475Y-56545000D01*
X147451399Y-56646261D01*
X146971859Y-56844893D01*
X146540285Y-57133262D01*
X146173262Y-57500285D01*
X145884893Y-57931859D01*
X145686261Y-58411399D01*
X145585000Y-58920475D01*
X135022000Y-58920475D01*
X135022000Y-55725374D01*
X137844231Y-55725374D01*
X138144411Y-56163828D01*
X138723356Y-56474296D01*
X139351746Y-56665852D01*
X140005431Y-56731134D01*
X140659293Y-56667634D01*
X141288203Y-56477792D01*
X141867992Y-56168904D01*
X141875589Y-56163828D01*
X142175769Y-55725374D01*
X140010000Y-53559605D01*
X137844231Y-55725374D01*
X135022000Y-55725374D01*
X135022000Y-53375431D01*
X136658866Y-53375431D01*
X136722366Y-54029293D01*
X136912208Y-54658203D01*
X137221096Y-55237992D01*
X137226172Y-55245589D01*
X137664626Y-55545769D01*
X139830395Y-53380000D01*
X140189605Y-53380000D01*
X142355374Y-55545769D01*
X142793828Y-55245589D01*
X143104296Y-54666644D01*
X143295852Y-54038254D01*
X143361134Y-53384569D01*
X143297634Y-52730707D01*
X143107792Y-52101797D01*
X142798904Y-51522008D01*
X142793828Y-51514411D01*
X142355374Y-51214231D01*
X140189605Y-53380000D01*
X139830395Y-53380000D01*
X137664626Y-51214231D01*
X137226172Y-51514411D01*
X136915704Y-52093356D01*
X136724148Y-52721746D01*
X136658866Y-53375431D01*
X135022000Y-53375431D01*
X135022000Y-51034626D01*
X137844231Y-51034626D01*
X140010000Y-53200395D01*
X142175769Y-51034626D01*
X141875589Y-50596172D01*
X141335388Y-50306481D01*
X145093124Y-50306481D01*
X145405308Y-50755177D01*
X146001259Y-51075612D01*
X146648273Y-51273626D01*
X147321484Y-51341610D01*
X147995023Y-51276949D01*
X148643006Y-51082130D01*
X149240530Y-50764639D01*
X149254692Y-50755177D01*
X149566876Y-50306481D01*
X169093124Y-50306481D01*
X169405308Y-50755177D01*
X170001259Y-51075612D01*
X170648273Y-51273626D01*
X171321484Y-51341610D01*
X171995023Y-51276949D01*
X172643006Y-51082130D01*
X173240530Y-50764639D01*
X173254692Y-50755177D01*
X173566876Y-50306481D01*
X171330000Y-48069605D01*
X169093124Y-50306481D01*
X149566876Y-50306481D01*
X147330000Y-48069605D01*
X145093124Y-50306481D01*
X141335388Y-50306481D01*
X141296644Y-50285704D01*
X140668254Y-50094148D01*
X140014569Y-50028866D01*
X139360707Y-50092366D01*
X138731797Y-50282208D01*
X138152008Y-50591096D01*
X138144411Y-50596172D01*
X137844231Y-51034626D01*
X135022000Y-51034626D01*
X135022000Y-47881484D01*
X143878390Y-47881484D01*
X143943051Y-48555023D01*
X144137870Y-49203006D01*
X144455361Y-49800530D01*
X144464823Y-49814692D01*
X144913519Y-50126876D01*
X147150395Y-47890000D01*
X147509605Y-47890000D01*
X149746481Y-50126876D01*
X150195177Y-49814692D01*
X150515612Y-49218741D01*
X150713626Y-48571727D01*
X150781610Y-47898516D01*
X150779975Y-47881484D01*
X167878390Y-47881484D01*
X167943051Y-48555023D01*
X168137870Y-49203006D01*
X168455361Y-49800530D01*
X168464823Y-49814692D01*
X168913519Y-50126876D01*
X171150395Y-47890000D01*
X171509605Y-47890000D01*
X173746481Y-50126876D01*
X174195177Y-49814692D01*
X174515612Y-49218741D01*
X174713626Y-48571727D01*
X174781610Y-47898516D01*
X174716949Y-47224977D01*
X174522130Y-46576994D01*
X174204639Y-45979470D01*
X174195177Y-45965308D01*
X173746481Y-45653124D01*
X171509605Y-47890000D01*
X171150395Y-47890000D01*
X168913519Y-45653124D01*
X168464823Y-45965308D01*
X168144388Y-46561259D01*
X167946374Y-47208273D01*
X167878390Y-47881484D01*
X150779975Y-47881484D01*
X150716949Y-47224977D01*
X150522130Y-46576994D01*
X150204639Y-45979470D01*
X150195177Y-45965308D01*
X149746481Y-45653124D01*
X147509605Y-47890000D01*
X147150395Y-47890000D01*
X144913519Y-45653124D01*
X144464823Y-45965308D01*
X144144388Y-46561259D01*
X143946374Y-47208273D01*
X143878390Y-47881484D01*
X135022000Y-47881484D01*
X135022000Y-45473519D01*
X145093124Y-45473519D01*
X147330000Y-47710395D01*
X149566876Y-45473519D01*
X169093124Y-45473519D01*
X171330000Y-47710395D01*
X173566876Y-45473519D01*
X173254692Y-45024823D01*
X172658741Y-44704388D01*
X172011727Y-44506374D01*
X171338516Y-44438390D01*
X170664977Y-44503051D01*
X170016994Y-44697870D01*
X169419470Y-45015361D01*
X169405308Y-45024823D01*
X169093124Y-45473519D01*
X149566876Y-45473519D01*
X149254692Y-45024823D01*
X148658741Y-44704388D01*
X148011727Y-44506374D01*
X147338516Y-44438390D01*
X146664977Y-44503051D01*
X146016994Y-44697870D01*
X145419470Y-45015361D01*
X145405308Y-45024823D01*
X145093124Y-45473519D01*
X135022000Y-45473519D01*
X135022000Y-33920475D01*
X145585000Y-33920475D01*
X145585000Y-34439525D01*
X145686261Y-34948601D01*
X145884893Y-35428141D01*
X146173262Y-35859715D01*
X146540285Y-36226738D01*
X146971859Y-36515107D01*
X147451399Y-36713739D01*
X147960475Y-36815000D01*
X148479525Y-36815000D01*
X148988601Y-36713739D01*
X149468141Y-36515107D01*
X149899715Y-36226738D01*
X150266738Y-35859715D01*
X150555107Y-35428141D01*
X150753739Y-34948601D01*
X150855000Y-34439525D01*
X150855000Y-33920475D01*
X150753739Y-33411399D01*
X150719827Y-33329527D01*
X151085000Y-33329527D01*
X151085000Y-35030473D01*
X151416838Y-36698737D01*
X152067762Y-38270206D01*
X153012758Y-39684492D01*
X154215508Y-40887242D01*
X155629794Y-41832238D01*
X157201263Y-42483162D01*
X158869527Y-42815000D01*
X160570473Y-42815000D01*
X162238737Y-42483162D01*
X163810206Y-41832238D01*
X165224492Y-40887242D01*
X166427242Y-39684492D01*
X167372238Y-38270206D01*
X168023162Y-36698737D01*
X168355000Y-35030473D01*
X168355000Y-33920475D01*
X168585000Y-33920475D01*
X168585000Y-34439525D01*
X168686261Y-34948601D01*
X168884893Y-35428141D01*
X169173262Y-35859715D01*
X169540285Y-36226738D01*
X169971859Y-36515107D01*
X170451399Y-36713739D01*
X170960475Y-36815000D01*
X171479525Y-36815000D01*
X171988601Y-36713739D01*
X172468141Y-36515107D01*
X172899715Y-36226738D01*
X173266738Y-35859715D01*
X173555107Y-35428141D01*
X173753739Y-34948601D01*
X173855000Y-34439525D01*
X173855000Y-33920475D01*
X173753739Y-33411399D01*
X173555107Y-32931859D01*
X173266738Y-32500285D01*
X172899715Y-32133262D01*
X172468141Y-31844893D01*
X171988601Y-31646261D01*
X171479525Y-31545000D01*
X170960475Y-31545000D01*
X170451399Y-31646261D01*
X169971859Y-31844893D01*
X169540285Y-32133262D01*
X169173262Y-32500285D01*
X168884893Y-32931859D01*
X168686261Y-33411399D01*
X168585000Y-33920475D01*
X168355000Y-33920475D01*
X168355000Y-33329527D01*
X168023162Y-31661263D01*
X167372238Y-30089794D01*
X166427242Y-28675508D01*
X165224492Y-27472758D01*
X163810206Y-26527762D01*
X162238737Y-25876838D01*
X160570473Y-25545000D01*
X158869527Y-25545000D01*
X157201263Y-25876838D01*
X155629794Y-26527762D01*
X154215508Y-27472758D01*
X153012758Y-28675508D01*
X152067762Y-30089794D01*
X151416838Y-31661263D01*
X151085000Y-33329527D01*
X150719827Y-33329527D01*
X150555107Y-32931859D01*
X150266738Y-32500285D01*
X149899715Y-32133262D01*
X149468141Y-31844893D01*
X148988601Y-31646261D01*
X148479525Y-31545000D01*
X147960475Y-31545000D01*
X147451399Y-31646261D01*
X146971859Y-31844893D01*
X146540285Y-32133262D01*
X146173262Y-32500285D01*
X145884893Y-32931859D01*
X145686261Y-33411399D01*
X145585000Y-33920475D01*
X135022000Y-33920475D01*
X135022000Y-30725374D01*
X137844231Y-30725374D01*
X138144411Y-31163828D01*
X138723356Y-31474296D01*
X139351746Y-31665852D01*
X140005431Y-31731134D01*
X140659293Y-31667634D01*
X141288203Y-31477792D01*
X141867992Y-31168904D01*
X141875589Y-31163828D01*
X142175769Y-30725374D01*
X140010000Y-28559605D01*
X137844231Y-30725374D01*
X135022000Y-30725374D01*
X135022000Y-28375431D01*
X136658866Y-28375431D01*
X136722366Y-29029293D01*
X136912208Y-29658203D01*
X137221096Y-30237992D01*
X137226172Y-30245589D01*
X137664626Y-30545769D01*
X139830395Y-28380000D01*
X140189605Y-28380000D01*
X142355374Y-30545769D01*
X142793828Y-30245589D01*
X143104296Y-29666644D01*
X143295852Y-29038254D01*
X143361134Y-28384569D01*
X143297634Y-27730707D01*
X143107792Y-27101797D01*
X142798904Y-26522008D01*
X142793828Y-26514411D01*
X142355374Y-26214231D01*
X140189605Y-28380000D01*
X139830395Y-28380000D01*
X137664626Y-26214231D01*
X137226172Y-26514411D01*
X136915704Y-27093356D01*
X136724148Y-27721746D01*
X136658866Y-28375431D01*
X135022000Y-28375431D01*
X135022000Y-26034626D01*
X137844231Y-26034626D01*
X140010000Y-28200395D01*
X142175769Y-26034626D01*
X141875589Y-25596172D01*
X141296644Y-25285704D01*
X140668254Y-25094148D01*
X140014569Y-25028866D01*
X139360707Y-25092366D01*
X138731797Y-25282208D01*
X138152008Y-25591096D01*
X138144411Y-25596172D01*
X137844231Y-26034626D01*
X135022000Y-26034626D01*
X135022000Y-5725374D01*
X137844231Y-5725374D01*
X138144411Y-6163828D01*
X138723356Y-6474296D01*
X139351746Y-6665852D01*
X140005431Y-6731134D01*
X140659293Y-6667634D01*
X141288203Y-6477792D01*
X141867992Y-6168904D01*
X141875589Y-6163828D01*
X142175769Y-5725374D01*
X140010000Y-3559605D01*
X137844231Y-5725374D01*
X135022000Y-5725374D01*
X135022000Y-3375431D01*
X136658866Y-3375431D01*
X136722366Y-4029293D01*
X136912208Y-4658203D01*
X137221096Y-5237992D01*
X137226172Y-5245589D01*
X137664626Y-5545769D01*
X139830395Y-3380000D01*
X140189605Y-3380000D01*
X142355374Y-5545769D01*
X142793828Y-5245589D01*
X143104296Y-4666644D01*
X143295852Y-4038254D01*
X143361134Y-3384569D01*
X143297634Y-2730707D01*
X143107792Y-2101797D01*
X142798904Y-1522008D01*
X142793828Y-1514411D01*
X142355374Y-1214231D01*
X140189605Y-3380000D01*
X139830395Y-3380000D01*
X137664626Y-1214231D01*
X137226172Y-1514411D01*
X136915704Y-2093356D01*
X136724148Y-2721746D01*
X136658866Y-3375431D01*
X135022000Y-3375431D01*
X135022000Y-1034626D01*
X137844231Y-1034626D01*
X140010000Y-3200395D01*
X142175769Y-1034626D01*
X141875589Y-596172D01*
X141296644Y-285704D01*
X140668254Y-94148D01*
X140014569Y-28866D01*
X139360707Y-92366D01*
X138731797Y-282208D01*
X138152008Y-591096D01*
X138144411Y-596172D01*
X137844231Y-1034626D01*
X135022000Y-1034626D01*
X135022000Y3269525D01*
X145575000Y3269525D01*
X145575000Y2750475D01*
X145676261Y2241399D01*
X145874893Y1761859D01*
X146163262Y1330285D01*
X146530285Y963262D01*
X146961859Y674893D01*
X147441399Y476261D01*
X147950475Y375000D01*
X148469525Y375000D01*
X148978601Y476261D01*
X149458141Y674893D01*
X149889715Y963262D01*
X150256738Y1330285D01*
X150545107Y1761859D01*
X150743739Y2241399D01*
X150791899Y2483519D01*
X157093124Y2483519D01*
X157405308Y2034823D01*
X158001259Y1714388D01*
X158648273Y1516374D01*
X159321484Y1448390D01*
X159995023Y1513051D01*
X160643006Y1707870D01*
X161240530Y2025361D01*
X161254692Y2034823D01*
X161566876Y2483519D01*
X159330000Y4720395D01*
X157093124Y2483519D01*
X150791899Y2483519D01*
X150845000Y2750475D01*
X150845000Y3269525D01*
X150743739Y3778601D01*
X150545107Y4258141D01*
X150256738Y4689715D01*
X150037937Y4908516D01*
X155878390Y4908516D01*
X155943051Y4234977D01*
X156137870Y3586994D01*
X156455361Y2989470D01*
X156464823Y2975308D01*
X156913519Y2663124D01*
X159150395Y4900000D01*
X159509605Y4900000D01*
X161746481Y2663124D01*
X162195177Y2975308D01*
X162515612Y3571259D01*
X162713626Y4218273D01*
X162781610Y4891484D01*
X162716949Y5565023D01*
X162522130Y6213006D01*
X162204639Y6810530D01*
X162195177Y6824692D01*
X161746481Y7136876D01*
X159509605Y4900000D01*
X159150395Y4900000D01*
X156913519Y7136876D01*
X156464823Y6824692D01*
X156144388Y6228741D01*
X155946374Y5581727D01*
X155878390Y4908516D01*
X150037937Y4908516D01*
X149889715Y5056738D01*
X149458141Y5345107D01*
X148978601Y5543739D01*
X148469525Y5645000D01*
X147950475Y5645000D01*
X147441399Y5543739D01*
X146961859Y5345107D01*
X146530285Y5056738D01*
X146163262Y4689715D01*
X145874893Y4258141D01*
X145676261Y3778601D01*
X145575000Y3269525D01*
X135022000Y3269525D01*
X135022000Y15360473D01*
X139575000Y15360473D01*
X139575000Y13659527D01*
X139906838Y11991263D01*
X140557762Y10419794D01*
X141502758Y9005508D01*
X142705508Y7802758D01*
X144119794Y6857762D01*
X145691263Y6206838D01*
X147359527Y5875000D01*
X149060473Y5875000D01*
X150728737Y6206838D01*
X152300206Y6857762D01*
X152986727Y7316481D01*
X157093124Y7316481D01*
X159330000Y5079605D01*
X161566876Y7316481D01*
X161254692Y7765177D01*
X160658741Y8085612D01*
X160011727Y8283626D01*
X159338516Y8351610D01*
X158664977Y8286949D01*
X158016994Y8092130D01*
X157419470Y7774639D01*
X157405308Y7765177D01*
X157093124Y7316481D01*
X152986727Y7316481D01*
X153714492Y7802758D01*
X154917242Y9005508D01*
X155862238Y10419794D01*
X156513162Y11991263D01*
X156845000Y13659527D01*
X156845000Y15360473D01*
X156513162Y17028737D01*
X155862238Y18600206D01*
X154917242Y20014492D01*
X154423265Y20508469D01*
X172725000Y20508469D01*
X172725000Y19851531D01*
X172853162Y19207216D01*
X173104561Y18600285D01*
X173469536Y18054061D01*
X173934061Y17589536D01*
X174480285Y17224561D01*
X175087216Y16973162D01*
X175731531Y16845000D01*
X176388469Y16845000D01*
X177032784Y16973162D01*
X177639715Y17224561D01*
X178185939Y17589536D01*
X178650464Y18054061D01*
X179015439Y18600285D01*
X179266838Y19207216D01*
X179395000Y19851531D01*
X179395000Y20508469D01*
X179266838Y21152784D01*
X179015439Y21759715D01*
X178650464Y22305939D01*
X178185939Y22770464D01*
X177639715Y23135439D01*
X177032784Y23386838D01*
X176388469Y23515000D01*
X175731531Y23515000D01*
X175087216Y23386838D01*
X174480285Y23135439D01*
X173934061Y22770464D01*
X173469536Y22305939D01*
X173104561Y21759715D01*
X172853162Y21152784D01*
X172725000Y20508469D01*
X154423265Y20508469D01*
X153714492Y21217242D01*
X152300206Y22162238D01*
X150728737Y22813162D01*
X149060473Y23145000D01*
X147359527Y23145000D01*
X145691263Y22813162D01*
X144119794Y22162238D01*
X142705508Y21217242D01*
X141502758Y20014492D01*
X140557762Y18600206D01*
X139906838Y17028737D01*
X139575000Y15360473D01*
X135022000Y15360473D01*
X135022000Y26269525D01*
X145575000Y26269525D01*
X145575000Y25750475D01*
X145676261Y25241399D01*
X145874893Y24761859D01*
X146163262Y24330285D01*
X146530285Y23963262D01*
X146961859Y23674893D01*
X147441399Y23476261D01*
X147950475Y23375000D01*
X148469525Y23375000D01*
X148978601Y23476261D01*
X149458141Y23674893D01*
X149889715Y23963262D01*
X150256738Y24330285D01*
X150545107Y24761859D01*
X150743739Y25241399D01*
X150845000Y25750475D01*
X150845000Y26269525D01*
X150743739Y26778601D01*
X150545107Y27258141D01*
X150256738Y27689715D01*
X149889715Y28056738D01*
X149458141Y28345107D01*
X148978601Y28543739D01*
X148469525Y28645000D01*
X147950475Y28645000D01*
X147441399Y28543739D01*
X146961859Y28345107D01*
X146530285Y28056738D01*
X146163262Y27689715D01*
X145874893Y27258141D01*
X145676261Y26778601D01*
X145575000Y26269525D01*
X135022000Y26269525D01*
X135022000Y39121287D01*
X135343286Y38698891D01*
X135848020Y38252460D01*
X136430150Y37913075D01*
X137067305Y37693779D01*
X137735000Y37603000D01*
X140235000Y37603000D01*
X140235000Y40911000D01*
X140489000Y40911000D01*
X140489000Y37603000D01*
X142989000Y37603000D01*
X143656695Y37693779D01*
X144293850Y37913075D01*
X144875980Y38252460D01*
X145380714Y38698891D01*
X145788655Y39235213D01*
X146084126Y39840815D01*
X146232522Y40375579D01*
X172491478Y40375579D01*
X172639874Y39840815D01*
X172935345Y39235213D01*
X173343286Y38698891D01*
X173848020Y38252460D01*
X174430150Y37913075D01*
X175067305Y37693779D01*
X175735000Y37603000D01*
X178235000Y37603000D01*
X178235000Y40911000D01*
X172588212Y40911000D01*
X172491478Y40375579D01*
X146232522Y40375579D01*
X146135788Y40911000D01*
X140489000Y40911000D01*
X140235000Y40911000D01*
X140215000Y40911000D01*
X140215000Y41165000D01*
X140235000Y41165000D01*
X140235000Y41185000D01*
X140489000Y41185000D01*
X140489000Y41165000D01*
X146135788Y41165000D01*
X146232522Y41700421D01*
X146084126Y42235185D01*
X145788655Y42840787D01*
X145380714Y43377109D01*
X144875980Y43823540D01*
X144782568Y43878000D01*
X173941432Y43878000D01*
X173848020Y43823540D01*
G37*
G04 #@! TD.AperFunction*
M02*
