%TF.GenerationSoftware,KiCad,Pcbnew,(5.1.7)-1*%
%TF.CreationDate,2021-12-31T12:29:52+00:00*%
%TF.ProjectId,PCB-MIDI-THRU,5043422d-4d49-4444-992d-544852552e6b,rev?*%
%TF.SameCoordinates,Original*%
%TF.FileFunction,Soldermask,Top*%
%TF.FilePolarity,Negative*%
%FSLAX46Y46*%
G04 Gerber Fmt 4.6, Leading zero omitted, Abs format (unit mm)*
G04 Created by KiCad (PCBNEW (5.1.7)-1) date 2021-12-31 12:29:52*
%MOMM*%
%LPD*%
G01*
G04 APERTURE LIST*
%ADD10C,5.600000*%
%ADD11C,1.600000*%
%ADD12O,1.600000X1.600000*%
%ADD13R,1.600000X1.600000*%
%ADD14O,2.000000X1.905000*%
%ADD15R,2.000000X1.905000*%
%ADD16O,3.500000X3.500000*%
%ADD17O,1.700000X1.700000*%
%ADD18R,1.700000X1.700000*%
%ADD19C,1.700000*%
%ADD20C,1.800000*%
%ADD21R,1.800000X1.800000*%
%ADD22O,1.800000X1.800000*%
G04 APERTURE END LIST*
D10*
%TO.C,H4*%
X236000000Y-128590000D03*
%TD*%
%TO.C,H2*%
X162510000Y-152570000D03*
%TD*%
%TO.C,H3*%
X109720000Y-140570000D03*
%TD*%
D11*
%TO.C,C9*%
X181640000Y-131000000D03*
X186640000Y-131000000D03*
%TD*%
D10*
%TO.C,H1*%
X162510000Y-128570000D03*
%TD*%
%TO.C,H5*%
X236000000Y-152590000D03*
%TD*%
D12*
%TO.C,U2*%
X134710000Y-152080000D03*
X127090000Y-159700000D03*
X134710000Y-154620000D03*
X127090000Y-157160000D03*
X134710000Y-157160000D03*
X127090000Y-154620000D03*
X134710000Y-159700000D03*
D13*
X127090000Y-152080000D03*
%TD*%
D14*
%TO.C,U1*%
X115320000Y-146040000D03*
X115320000Y-143500000D03*
D15*
X115320000Y-140960000D03*
D16*
X131980000Y-143500000D03*
%TD*%
D12*
%TO.C,U3*%
X192080000Y-134340000D03*
X176840000Y-126720000D03*
X189540000Y-134340000D03*
X179380000Y-126720000D03*
X187000000Y-134340000D03*
X181920000Y-126720000D03*
X184460000Y-134340000D03*
X184460000Y-126720000D03*
X181920000Y-134340000D03*
X187000000Y-126720000D03*
X179380000Y-134340000D03*
X189540000Y-126720000D03*
X176840000Y-134340000D03*
D13*
X192080000Y-126720000D03*
%TD*%
D12*
%TO.C,R27*%
X247510000Y-147910000D03*
D11*
X247510000Y-137750000D03*
%TD*%
D12*
%TO.C,R26*%
X222510000Y-147910000D03*
D11*
X222510000Y-137750000D03*
%TD*%
D12*
%TO.C,R25*%
X197510000Y-147910000D03*
D11*
X197510000Y-137750000D03*
%TD*%
D12*
%TO.C,R24*%
X172510000Y-147910000D03*
D11*
X172510000Y-137750000D03*
%TD*%
D12*
%TO.C,R23*%
X147510000Y-147910000D03*
D11*
X147510000Y-137750000D03*
%TD*%
D12*
%TO.C,R22*%
X247550000Y-160650000D03*
D11*
X247550000Y-150490000D03*
%TD*%
D12*
%TO.C,R21*%
X222550000Y-160650000D03*
D11*
X222550000Y-150490000D03*
%TD*%
D12*
%TO.C,R20*%
X197550000Y-160650000D03*
D11*
X197550000Y-150490000D03*
%TD*%
D12*
%TO.C,R19*%
X172550000Y-160650000D03*
D11*
X172550000Y-150490000D03*
%TD*%
D12*
%TO.C,R18*%
X147550000Y-160650000D03*
D11*
X147550000Y-150490000D03*
%TD*%
D12*
%TO.C,R17*%
X243000000Y-137840000D03*
D11*
X243000000Y-148000000D03*
%TD*%
D12*
%TO.C,R16*%
X218000000Y-137840000D03*
D11*
X218000000Y-148000000D03*
%TD*%
D12*
%TO.C,R15*%
X193000000Y-137840000D03*
D11*
X193000000Y-148000000D03*
%TD*%
D12*
%TO.C,R14*%
X168000000Y-137840000D03*
D11*
X168000000Y-148000000D03*
%TD*%
D12*
%TO.C,R13*%
X143000000Y-137840000D03*
D11*
X143000000Y-148000000D03*
%TD*%
D12*
%TO.C,R12*%
X242890000Y-160730000D03*
D11*
X242890000Y-150570000D03*
%TD*%
D12*
%TO.C,R11*%
X217890000Y-160730000D03*
D11*
X217890000Y-150570000D03*
%TD*%
D12*
%TO.C,R10*%
X192890000Y-160730000D03*
D11*
X192890000Y-150570000D03*
%TD*%
D12*
%TO.C,R9*%
X167890000Y-160730000D03*
D11*
X167890000Y-150570000D03*
%TD*%
D12*
%TO.C,R8*%
X142890000Y-160730000D03*
D11*
X142890000Y-150570000D03*
%TD*%
D12*
%TO.C,R7*%
X115000000Y-136250000D03*
D11*
X125160000Y-136250000D03*
%TD*%
D12*
%TO.C,R6*%
X127600000Y-131670000D03*
D11*
X117440000Y-131670000D03*
%TD*%
D12*
%TO.C,R5*%
X140450000Y-131670000D03*
D11*
X130290000Y-131670000D03*
%TD*%
D12*
%TO.C,R4*%
X137840000Y-136150000D03*
D11*
X127680000Y-136150000D03*
%TD*%
D12*
%TO.C,R3*%
X100800000Y-161950000D03*
D11*
X90640000Y-161950000D03*
%TD*%
D12*
%TO.C,R2*%
X112990000Y-151750000D03*
D11*
X123150000Y-151750000D03*
%TD*%
D12*
%TO.C,R1*%
X112950000Y-160780000D03*
D11*
X123110000Y-160780000D03*
%TD*%
D17*
%TO.C,J7*%
X250660000Y-119780000D03*
D18*
X250660000Y-122320000D03*
%TD*%
D17*
%TO.C,J6*%
X225660000Y-119780000D03*
D18*
X225660000Y-122320000D03*
%TD*%
D17*
%TO.C,J5*%
X200660000Y-119780000D03*
D18*
X200660000Y-122320000D03*
%TD*%
D17*
%TO.C,J4*%
X175660000Y-119780000D03*
D18*
X175660000Y-122320000D03*
%TD*%
D17*
%TO.C,J3*%
X150660000Y-119780000D03*
D18*
X150660000Y-122320000D03*
%TD*%
D17*
%TO.C,J2*%
X108890000Y-157210000D03*
D18*
X108890000Y-154670000D03*
%TD*%
D19*
%TO.C,J1*%
X91600000Y-135570000D03*
X91600000Y-138110000D03*
X91600000Y-140650000D03*
X91600000Y-143190000D03*
X91600000Y-145730000D03*
X94140000Y-135570000D03*
X94140000Y-138110000D03*
X94140000Y-140650000D03*
X94140000Y-143190000D03*
G36*
G01*
X94990000Y-145130000D02*
X94990000Y-146330000D01*
G75*
G02*
X94740000Y-146580000I-250000J0D01*
G01*
X93540000Y-146580000D01*
G75*
G02*
X93290000Y-146330000I0J250000D01*
G01*
X93290000Y-145130000D01*
G75*
G02*
X93540000Y-144880000I250000J0D01*
G01*
X94740000Y-144880000D01*
G75*
G02*
X94990000Y-145130000I0J-250000D01*
G01*
G37*
%TD*%
D20*
%TO.C,D16*%
X243000000Y-119980000D03*
D21*
X243000000Y-122520000D03*
%TD*%
D20*
%TO.C,D15*%
X218000000Y-119980000D03*
D21*
X218000000Y-122520000D03*
%TD*%
D20*
%TO.C,D14*%
X193000000Y-119980000D03*
D21*
X193000000Y-122520000D03*
%TD*%
D20*
%TO.C,D13*%
X168000000Y-119980000D03*
D21*
X168000000Y-122520000D03*
%TD*%
D20*
%TO.C,D12*%
X143000000Y-119980000D03*
D21*
X143000000Y-122520000D03*
%TD*%
D22*
%TO.C,D11*%
X253220000Y-147860000D03*
D21*
X253220000Y-158020000D03*
%TD*%
D22*
%TO.C,D10*%
X228220000Y-147860000D03*
D21*
X228220000Y-158020000D03*
%TD*%
D22*
%TO.C,D9*%
X203220000Y-147860000D03*
D21*
X203220000Y-158020000D03*
%TD*%
D22*
%TO.C,D8*%
X178220000Y-147860000D03*
D21*
X178220000Y-158020000D03*
%TD*%
D22*
%TO.C,D7*%
X153220000Y-147860000D03*
D21*
X153220000Y-158020000D03*
%TD*%
D20*
%TO.C,D6*%
X118000000Y-119980000D03*
D21*
X118000000Y-122520000D03*
%TD*%
D22*
%TO.C,D5*%
X130330000Y-126750000D03*
D21*
X140490000Y-126750000D03*
%TD*%
D20*
%TO.C,D4*%
X91900000Y-156030000D03*
D21*
X94440000Y-156030000D03*
%TD*%
D22*
%TO.C,D3*%
X113150000Y-156330000D03*
D21*
X123310000Y-156330000D03*
%TD*%
D22*
%TO.C,D2*%
X104120000Y-145750000D03*
D21*
X104120000Y-135590000D03*
%TD*%
D22*
%TO.C,D1*%
X94120000Y-124130000D03*
D21*
X104280000Y-124130000D03*
%TD*%
D11*
%TO.C,C8*%
X253230000Y-138070000D03*
D13*
X253230000Y-140570000D03*
%TD*%
D11*
%TO.C,C7*%
X228230000Y-138070000D03*
D13*
X228230000Y-140570000D03*
%TD*%
D11*
%TO.C,C6*%
X203230000Y-138070000D03*
D13*
X203230000Y-140570000D03*
%TD*%
D11*
%TO.C,C5*%
X178230000Y-138070000D03*
D13*
X178230000Y-140570000D03*
%TD*%
D11*
%TO.C,C4*%
X155730000Y-140570000D03*
D13*
X153230000Y-140570000D03*
%TD*%
D11*
%TO.C,C3*%
X127450000Y-122120000D03*
D13*
X124950000Y-122120000D03*
%TD*%
D11*
%TO.C,C2*%
X101650000Y-151140000D03*
D13*
X104150000Y-151140000D03*
%TD*%
D11*
%TO.C,C1*%
X101780000Y-130060000D03*
D13*
X104280000Y-130060000D03*
%TD*%
M02*
