M48
; DRILL file {KiCad (5.1.7)-1} date 12/31/21 12:29:55
; FORMAT={-:-/ absolute / inch / decimal}
; #@! TF.CreationDate,2021-12-31T12:29:55+00:00
; #@! TF.GenerationSoftware,Kicad,Pcbnew,(5.1.7)-1
; #@! TF.FileFunction,Plated,1,2,PTH
FMAT,2
INCH
T1C0.0315
T2C0.0354
T3C0.0394
T4C0.0433
T5C0.1260
%
G90
G05
T1
X8.7618Y-5.9248
X8.7618Y-6.3248
X6.7933Y-5.9248
X6.7933Y-6.3248
X6.0327Y-5.5343
X6.1311Y-5.5343
X7.5984Y-5.4268
X7.5984Y-5.8268
X8.9854Y-5.4358
X8.9854Y-5.5343
X4.0071Y-5.1205
X4.1055Y-5.1205
X6.6142Y-5.4268
X6.6142Y-5.8268
X4.5276Y-5.3642
X4.9276Y-5.3642
X4.002Y-5.9504
X4.1004Y-5.9504
X4.4469Y-6.3299
X4.8469Y-6.3299
X9.5669Y-5.4268
X9.5669Y-5.8268
X7.5941Y-5.928
X7.5941Y-6.328
X4.9193Y-4.8079
X5.0177Y-4.8079
X4.4484Y-5.9744
X4.8484Y-5.9744
X9.7461Y-5.9248
X9.7461Y-6.3248
X5.6256Y-5.928
X5.6256Y-6.328
X9.9697Y-5.4358
X9.9697Y-5.5343
X5.0268Y-5.3602
X5.4268Y-5.3602
X5.0035Y-5.9874
X5.0035Y-6.0874
X5.0035Y-6.1874
X5.0035Y-6.2874
X5.3035Y-5.9874
X5.3035Y-6.0874
X5.3035Y-6.1874
X5.3035Y-6.2874
X6.9622Y-4.989
X6.9622Y-5.289
X7.0622Y-4.989
X7.0622Y-5.289
X7.1622Y-4.989
X7.1622Y-5.289
X7.2622Y-4.989
X7.2622Y-5.289
X7.3622Y-4.989
X7.3622Y-5.289
X7.4622Y-4.989
X7.4622Y-5.289
X7.5622Y-4.989
X7.5622Y-5.289
X8.7602Y-5.4232
X8.7602Y-5.8232
X8.5783Y-5.928
X8.5783Y-6.328
X5.8075Y-5.4232
X5.8075Y-5.8232
X8.5827Y-5.4268
X8.5827Y-5.8268
X4.6236Y-5.1839
X5.0236Y-5.1839
X9.7445Y-5.4232
X9.7445Y-5.8232
X9.5626Y-5.928
X9.5626Y-6.328
X5.8091Y-5.9248
X5.8091Y-6.3248
X7.7776Y-5.9248
X7.7776Y-6.3248
X8.0012Y-5.4358
X8.0012Y-5.5343
X3.5685Y-6.376
X3.9685Y-6.376
X5.1295Y-5.1839
X5.5295Y-5.1839
X5.6299Y-5.4268
X5.6299Y-5.8268
X6.7917Y-5.4232
X6.7917Y-5.8232
X6.6098Y-5.928
X6.6098Y-6.328
X7.0169Y-5.4358
X7.0169Y-5.5343
X7.1512Y-5.1575
X7.348Y-5.1575
X7.776Y-5.4232
X7.776Y-5.8232
T2
X4.4547Y-6.1547
X4.8547Y-6.1547
X7.0165Y-5.8213
X7.0165Y-6.2213
X5.6299Y-4.7236
X5.6299Y-4.8236
X6.0323Y-5.8213
X6.0323Y-6.2213
X7.5984Y-4.7236
X7.5984Y-4.8236
X3.6181Y-6.1429
X3.7181Y-6.1429
X3.7055Y-4.887
X4.1055Y-4.887
X5.1311Y-4.9902
X5.5311Y-4.9902
X9.5669Y-4.7236
X9.5669Y-4.8236
X8.5827Y-4.7236
X8.5827Y-4.8236
X8.0008Y-5.8213
X8.0008Y-6.2213
X6.6142Y-4.7236
X6.6142Y-4.8236
X4.6457Y-4.7236
X4.6457Y-4.8236
X4.0992Y-5.3382
X4.0992Y-5.7382
X8.985Y-5.8213
X8.985Y-6.2213
X9.9693Y-5.8213
X9.9693Y-6.2213
T3
X6.9157Y-4.7157
X6.9157Y-4.8157
X8.8843Y-4.7157
X8.8843Y-4.8157
X3.6063Y-5.3374
X3.6063Y-5.4374
X3.6063Y-5.5374
X3.6063Y-5.6374
X3.6063Y-5.7374
X3.7063Y-5.3374
X3.7063Y-5.4374
X3.7063Y-5.5374
X3.7063Y-5.6374
X3.7063Y-5.7374
X4.287Y-6.0894
X4.287Y-6.1894
X7.9Y-4.7157
X7.9Y-4.8157
X5.9315Y-4.7157
X5.9315Y-4.8157
X9.8685Y-4.7157
X9.8685Y-4.8157
T4
X4.5402Y-5.5496
X4.5402Y-5.6496
X4.5402Y-5.7496
T5
X4.3197Y-5.5343
X6.398Y-5.0618
X9.2913Y-6.0075
X6.398Y-6.0067
X9.2913Y-5.0626
T0
M30
