M48
; DRILL file {KiCad (5.1.7)-1} date 12/31/21 12:26:01
; FORMAT={-:-/ absolute / inch / decimal}
; #@! TF.CreationDate,2021-12-31T12:26:01+00:00
; #@! TF.GenerationSoftware,Kicad,Pcbnew,(5.1.7)-1
; #@! TF.FileFunction,Plated,1,2,PTH
FMAT,2
INCH
T1C0.1260
T2C0.1378
T3C0.2047
T4C0.5906
%
G90
G05
T1
X5.8004Y-1.8854
X6.7461Y-4.7787
X5.8012Y-4.7787
X6.7453Y-1.8854
X6.2728Y0.1929
T2
X5.835Y1.024
X5.835Y0.1185
X5.8354Y-2.3299
X6.7409Y-2.3299
X5.8354Y-5.2827
X6.7409Y-5.2827
X5.8354Y-3.3142
X6.7409Y-3.3142
X5.8354Y-4.2984
X6.7409Y-4.2984
X5.8354Y-1.3457
X6.7409Y-1.3457
T3
X5.5122Y-1.1173
X5.5122Y-2.1016
X5.5122Y-4.0701
X5.5122Y-5.0543
X5.5122Y-3.0858
X6.9315Y0.7945
X5.5122Y-0.1331
T4
X6.2882Y-1.3457
X5.835Y0.5713
X6.2882Y-2.3299
X6.2882Y-5.2827
X6.2882Y-3.3142
X6.2882Y-4.2984
T1
G00X6.9237Y1.6157
M15
G01X7.1206Y1.6157
M16
G05
G00X5.4276Y1.6157
M15
G01X5.6245Y1.6157
M16
G05
G00X6.9237Y-5.9828
M15
G01X7.1206Y-5.9828
M16
G05
G00X5.4276Y-5.9828
M15
G01X5.6245Y-5.9828
M16
G05
T0
M30
