G04 #@! TF.GenerationSoftware,KiCad,Pcbnew,(5.1.7)-1*
G04 #@! TF.CreationDate,2021-12-31T12:27:06+00:00*
G04 #@! TF.ProjectId,Panel,50616e65-6c2e-46b6-9963-61645f706362,rev?*
G04 #@! TF.SameCoordinates,Original*
G04 #@! TF.FileFunction,Legend,Top*
G04 #@! TF.FilePolarity,Positive*
%FSLAX46Y46*%
G04 Gerber Fmt 4.6, Leading zero omitted, Abs format (unit mm)*
G04 Created by KiCad (PCBNEW (5.1.7)-1) date 2021-12-31 12:27:06*
%MOMM*%
%LPD*%
G01*
G04 APERTURE LIST*
%ADD10C,0.500000*%
%ADD11C,1.500000*%
%ADD12C,0.120000*%
%ADD13C,0.150000*%
%ADD14C,0.200000*%
G04 APERTURE END LIST*
D10*
X172087619Y24082857D02*
X172087619Y27082857D01*
X172849523Y27082857D01*
X173040000Y26940000D01*
X173135238Y26797142D01*
X173230476Y26511428D01*
X173230476Y26082857D01*
X173135238Y25797142D01*
X173040000Y25654285D01*
X172849523Y25511428D01*
X172087619Y25511428D01*
X174373333Y24082857D02*
X174182857Y24225714D01*
X174087619Y24368571D01*
X173992380Y24654285D01*
X173992380Y25511428D01*
X174087619Y25797142D01*
X174182857Y25940000D01*
X174373333Y26082857D01*
X174659047Y26082857D01*
X174849523Y25940000D01*
X174944761Y25797142D01*
X175040000Y25511428D01*
X175040000Y24654285D01*
X174944761Y24368571D01*
X174849523Y24225714D01*
X174659047Y24082857D01*
X174373333Y24082857D01*
X175706666Y26082857D02*
X176087619Y24082857D01*
X176468571Y25511428D01*
X176849523Y24082857D01*
X177230476Y26082857D01*
X178754285Y24225714D02*
X178563809Y24082857D01*
X178182857Y24082857D01*
X177992380Y24225714D01*
X177897142Y24511428D01*
X177897142Y25654285D01*
X177992380Y25940000D01*
X178182857Y26082857D01*
X178563809Y26082857D01*
X178754285Y25940000D01*
X178849523Y25654285D01*
X178849523Y25368571D01*
X177897142Y25082857D01*
X179706666Y24082857D02*
X179706666Y26082857D01*
X179706666Y25511428D02*
X179801904Y25797142D01*
X179897142Y25940000D01*
X180087619Y26082857D01*
X180278095Y26082857D01*
X141547142Y-17604761D02*
X138547142Y-17604761D01*
X140690000Y-16938095D01*
X138547142Y-16271428D01*
X141547142Y-16271428D01*
X141547142Y-15319047D02*
X138547142Y-15319047D01*
X141547142Y-14366666D02*
X138547142Y-14366666D01*
X138547142Y-13890476D01*
X138690000Y-13604761D01*
X138975714Y-13414285D01*
X139261428Y-13319047D01*
X139832857Y-13223809D01*
X140261428Y-13223809D01*
X140832857Y-13319047D01*
X141118571Y-13414285D01*
X141404285Y-13604761D01*
X141547142Y-13890476D01*
X141547142Y-14366666D01*
X141547142Y-12366666D02*
X138547142Y-12366666D01*
X141547142Y-9890476D02*
X138547142Y-9890476D01*
X141547142Y-8938095D02*
X138547142Y-8938095D01*
X141547142Y-7795238D01*
X138547142Y-7795238D01*
D11*
X134324000Y-21440000D02*
X186770000Y-21440000D01*
X134324000Y-46440000D02*
X186770000Y-46440000D01*
X134324000Y-71440000D02*
X186770000Y-71440000D01*
X134324000Y-96440000D02*
X186770000Y-96440000D01*
X134324000Y-146440000D02*
X186770000Y-146440000D01*
D10*
X138357142Y-143714285D02*
X138357142Y-142571428D01*
X141357142Y-143142857D02*
X138357142Y-143142857D01*
X141357142Y-141904761D02*
X138357142Y-141904761D01*
X141357142Y-141047619D02*
X139785714Y-141047619D01*
X139500000Y-141142857D01*
X139357142Y-141333333D01*
X139357142Y-141619047D01*
X139500000Y-141809523D01*
X139642857Y-141904761D01*
X141357142Y-140095238D02*
X139357142Y-140095238D01*
X139928571Y-140095238D02*
X139642857Y-140000000D01*
X139500000Y-139904761D01*
X139357142Y-139714285D01*
X139357142Y-139523809D01*
X139357142Y-138000000D02*
X141357142Y-138000000D01*
X139357142Y-138857142D02*
X140928571Y-138857142D01*
X141214285Y-138761904D01*
X141357142Y-138571428D01*
X141357142Y-138285714D01*
X141214285Y-138095238D01*
X141071428Y-138000000D01*
X139357142Y-135619047D02*
X139357142Y-134190476D01*
X138071428Y-135047619D02*
X141928571Y-135619047D01*
X140642857Y-134380952D02*
X140642857Y-135809523D01*
X141928571Y-134952380D02*
X138071428Y-134380952D01*
X138357142Y-132571428D02*
X138357142Y-133523809D01*
X139785714Y-133619047D01*
X139642857Y-133523809D01*
X139500000Y-133333333D01*
X139500000Y-132857142D01*
X139642857Y-132666666D01*
X139785714Y-132571428D01*
X140071428Y-132476190D01*
X140785714Y-132476190D01*
X141071428Y-132571428D01*
X141214285Y-132666666D01*
X141357142Y-132857142D01*
X141357142Y-133333333D01*
X141214285Y-133523809D01*
X141071428Y-133619047D01*
X138357142Y-118714285D02*
X138357142Y-117571428D01*
X141357142Y-118142857D02*
X138357142Y-118142857D01*
X141357142Y-116904761D02*
X138357142Y-116904761D01*
X141357142Y-116047619D02*
X139785714Y-116047619D01*
X139500000Y-116142857D01*
X139357142Y-116333333D01*
X139357142Y-116619047D01*
X139500000Y-116809523D01*
X139642857Y-116904761D01*
X141357142Y-115095238D02*
X139357142Y-115095238D01*
X139928571Y-115095238D02*
X139642857Y-115000000D01*
X139500000Y-114904761D01*
X139357142Y-114714285D01*
X139357142Y-114523809D01*
X139357142Y-113000000D02*
X141357142Y-113000000D01*
X139357142Y-113857142D02*
X140928571Y-113857142D01*
X141214285Y-113761904D01*
X141357142Y-113571428D01*
X141357142Y-113285714D01*
X141214285Y-113095238D01*
X141071428Y-113000000D01*
X139357142Y-110619047D02*
X139357142Y-109190476D01*
X138071428Y-110047619D02*
X141928571Y-110619047D01*
X140642857Y-109380952D02*
X140642857Y-110809523D01*
X141928571Y-109952380D02*
X138071428Y-109380952D01*
X139357142Y-107666666D02*
X141357142Y-107666666D01*
X138214285Y-108142857D02*
X140357142Y-108619047D01*
X140357142Y-107380952D01*
X138357142Y-93714285D02*
X138357142Y-92571428D01*
X141357142Y-93142857D02*
X138357142Y-93142857D01*
X141357142Y-91904761D02*
X138357142Y-91904761D01*
X141357142Y-91047619D02*
X139785714Y-91047619D01*
X139500000Y-91142857D01*
X139357142Y-91333333D01*
X139357142Y-91619047D01*
X139500000Y-91809523D01*
X139642857Y-91904761D01*
X141357142Y-90095238D02*
X139357142Y-90095238D01*
X139928571Y-90095238D02*
X139642857Y-90000000D01*
X139500000Y-89904761D01*
X139357142Y-89714285D01*
X139357142Y-89523809D01*
X139357142Y-88000000D02*
X141357142Y-88000000D01*
X139357142Y-88857142D02*
X140928571Y-88857142D01*
X141214285Y-88761904D01*
X141357142Y-88571428D01*
X141357142Y-88285714D01*
X141214285Y-88095238D01*
X141071428Y-88000000D01*
X139357142Y-85619047D02*
X139357142Y-84190476D01*
X138071428Y-85047619D02*
X141928571Y-85619047D01*
X140642857Y-84380952D02*
X140642857Y-85809523D01*
X141928571Y-84952380D02*
X138071428Y-84380952D01*
X138357142Y-83714285D02*
X138357142Y-82476190D01*
X139500000Y-83142857D01*
X139500000Y-82857142D01*
X139642857Y-82666666D01*
X139785714Y-82571428D01*
X140071428Y-82476190D01*
X140785714Y-82476190D01*
X141071428Y-82571428D01*
X141214285Y-82666666D01*
X141357142Y-82857142D01*
X141357142Y-83428571D01*
X141214285Y-83619047D01*
X141071428Y-83714285D01*
X138357142Y-68714285D02*
X138357142Y-67571428D01*
X141357142Y-68142857D02*
X138357142Y-68142857D01*
X141357142Y-66904761D02*
X138357142Y-66904761D01*
X141357142Y-66047619D02*
X139785714Y-66047619D01*
X139500000Y-66142857D01*
X139357142Y-66333333D01*
X139357142Y-66619047D01*
X139500000Y-66809523D01*
X139642857Y-66904761D01*
X141357142Y-65095238D02*
X139357142Y-65095238D01*
X139928571Y-65095238D02*
X139642857Y-65000000D01*
X139500000Y-64904761D01*
X139357142Y-64714285D01*
X139357142Y-64523809D01*
X139357142Y-63000000D02*
X141357142Y-63000000D01*
X139357142Y-63857142D02*
X140928571Y-63857142D01*
X141214285Y-63761904D01*
X141357142Y-63571428D01*
X141357142Y-63285714D01*
X141214285Y-63095238D01*
X141071428Y-63000000D01*
X139357142Y-60619047D02*
X139357142Y-59190476D01*
X138071428Y-60047619D02*
X141928571Y-60619047D01*
X140642857Y-59380952D02*
X140642857Y-60809523D01*
X141928571Y-59952380D02*
X138071428Y-59380952D01*
X138642857Y-58619047D02*
X138500000Y-58523809D01*
X138357142Y-58333333D01*
X138357142Y-57857142D01*
X138500000Y-57666666D01*
X138642857Y-57571428D01*
X138928571Y-57476190D01*
X139214285Y-57476190D01*
X139642857Y-57571428D01*
X141357142Y-58714285D01*
X141357142Y-57476190D01*
X138357142Y-43714285D02*
X138357142Y-42571428D01*
X141357142Y-43142857D02*
X138357142Y-43142857D01*
X141357142Y-41904761D02*
X138357142Y-41904761D01*
X141357142Y-41047619D02*
X139785714Y-41047619D01*
X139500000Y-41142857D01*
X139357142Y-41333333D01*
X139357142Y-41619047D01*
X139500000Y-41809523D01*
X139642857Y-41904761D01*
X141357142Y-40095238D02*
X139357142Y-40095238D01*
X139928571Y-40095238D02*
X139642857Y-40000000D01*
X139500000Y-39904761D01*
X139357142Y-39714285D01*
X139357142Y-39523809D01*
X139357142Y-38000000D02*
X141357142Y-38000000D01*
X139357142Y-38857142D02*
X140928571Y-38857142D01*
X141214285Y-38761904D01*
X141357142Y-38571428D01*
X141357142Y-38285714D01*
X141214285Y-38095238D01*
X141071428Y-38000000D01*
X139357142Y-35619047D02*
X139357142Y-34190476D01*
X138071428Y-35047619D02*
X141928571Y-35619047D01*
X140642857Y-34380952D02*
X140642857Y-35809523D01*
X141928571Y-34952380D02*
X138071428Y-34380952D01*
X141357142Y-32476190D02*
X141357142Y-33619047D01*
X141357142Y-33047619D02*
X138357142Y-33047619D01*
X138785714Y-33238095D01*
X139071428Y-33428571D01*
X139214285Y-33619047D01*
D11*
X134324000Y-121440000D02*
X186770000Y-121440000D01*
D10*
X153883333Y40575714D02*
X153788095Y40480476D01*
X153502380Y40385238D01*
X153311904Y40385238D01*
X153026190Y40480476D01*
X152835714Y40670952D01*
X152740476Y40861428D01*
X152645238Y41242380D01*
X152645238Y41528095D01*
X152740476Y41909047D01*
X152835714Y42099523D01*
X153026190Y42290000D01*
X153311904Y42385238D01*
X153502380Y42385238D01*
X153788095Y42290000D01*
X153883333Y42194761D01*
X155692857Y40385238D02*
X154740476Y40385238D01*
X154740476Y42385238D01*
X156264285Y40956666D02*
X157216666Y40956666D01*
X156073809Y40385238D02*
X156740476Y42385238D01*
X157407142Y40385238D01*
X158454761Y41337619D02*
X158454761Y40385238D01*
X157788095Y42385238D02*
X158454761Y41337619D01*
X159121428Y42385238D01*
X159502380Y42385238D02*
X160645238Y42385238D01*
X160073809Y40385238D02*
X160073809Y42385238D01*
X161311904Y42385238D02*
X161311904Y40766190D01*
X161407142Y40575714D01*
X161502380Y40480476D01*
X161692857Y40385238D01*
X162073809Y40385238D01*
X162264285Y40480476D01*
X162359523Y40575714D01*
X162454761Y40766190D01*
X162454761Y42385238D01*
X163407142Y40385238D02*
X163407142Y42385238D01*
X164550000Y40385238D01*
X164550000Y42385238D01*
X165502380Y41432857D02*
X166169047Y41432857D01*
X166454761Y40385238D02*
X165502380Y40385238D01*
X165502380Y42385238D01*
X166454761Y42385238D01*
X147502380Y38885238D02*
X147502380Y38504285D01*
X148264285Y38885238D02*
X148264285Y38504285D01*
X148835714Y38885238D02*
X149978571Y38885238D01*
X149407142Y36885238D02*
X149407142Y38885238D01*
X150645238Y36885238D02*
X150645238Y38885238D01*
X151502380Y36885238D02*
X151502380Y37932857D01*
X151407142Y38123333D01*
X151216666Y38218571D01*
X150930952Y38218571D01*
X150740476Y38123333D01*
X150645238Y38028095D01*
X152454761Y36885238D02*
X152454761Y38218571D01*
X152454761Y37837619D02*
X152550000Y38028095D01*
X152645238Y38123333D01*
X152835714Y38218571D01*
X153026190Y38218571D01*
X154550000Y38218571D02*
X154550000Y36885238D01*
X153692857Y38218571D02*
X153692857Y37170952D01*
X153788095Y36980476D01*
X153978571Y36885238D01*
X154264285Y36885238D01*
X154454761Y36980476D01*
X154550000Y37075714D01*
X155502380Y36885238D02*
X155502380Y38218571D01*
X155502380Y38028095D02*
X155597619Y38123333D01*
X155788095Y38218571D01*
X156073809Y38218571D01*
X156264285Y38123333D01*
X156359523Y37932857D01*
X156359523Y36885238D01*
X156359523Y37932857D02*
X156454761Y38123333D01*
X156645238Y38218571D01*
X156930952Y38218571D01*
X157121428Y38123333D01*
X157216666Y37932857D01*
X157216666Y36885238D01*
X159026190Y36885238D02*
X159026190Y37932857D01*
X158930952Y38123333D01*
X158740476Y38218571D01*
X158359523Y38218571D01*
X158169047Y38123333D01*
X159026190Y36980476D02*
X158835714Y36885238D01*
X158359523Y36885238D01*
X158169047Y36980476D01*
X158073809Y37170952D01*
X158073809Y37361428D01*
X158169047Y37551904D01*
X158359523Y37647142D01*
X158835714Y37647142D01*
X159026190Y37742380D01*
X159978571Y38218571D02*
X159978571Y36885238D01*
X159978571Y38028095D02*
X160073809Y38123333D01*
X160264285Y38218571D01*
X160550000Y38218571D01*
X160740476Y38123333D01*
X160835714Y37932857D01*
X160835714Y36885238D01*
X163216666Y36980476D02*
X163502380Y36885238D01*
X163978571Y36885238D01*
X164169047Y36980476D01*
X164264285Y37075714D01*
X164359523Y37266190D01*
X164359523Y37456666D01*
X164264285Y37647142D01*
X164169047Y37742380D01*
X163978571Y37837619D01*
X163597619Y37932857D01*
X163407142Y38028095D01*
X163311904Y38123333D01*
X163216666Y38313809D01*
X163216666Y38504285D01*
X163311904Y38694761D01*
X163407142Y38790000D01*
X163597619Y38885238D01*
X164073809Y38885238D01*
X164359523Y38790000D01*
X165216666Y36885238D02*
X165216666Y38885238D01*
X166073809Y36885238D02*
X166073809Y37932857D01*
X165978571Y38123333D01*
X165788095Y38218571D01*
X165502380Y38218571D01*
X165311904Y38123333D01*
X165216666Y38028095D01*
X167311904Y36885238D02*
X167121428Y36980476D01*
X167026190Y37075714D01*
X166930952Y37266190D01*
X166930952Y37837619D01*
X167026190Y38028095D01*
X167121428Y38123333D01*
X167311904Y38218571D01*
X167597619Y38218571D01*
X167788095Y38123333D01*
X167883333Y38028095D01*
X167978571Y37837619D01*
X167978571Y37266190D01*
X167883333Y37075714D01*
X167788095Y36980476D01*
X167597619Y36885238D01*
X167311904Y36885238D01*
X168645238Y38218571D02*
X169026190Y36885238D01*
X169407142Y37837619D01*
X169788095Y36885238D01*
X170169047Y38218571D01*
X170835714Y38885238D02*
X170835714Y38504285D01*
X171597619Y38885238D02*
X171597619Y38504285D01*
X150883333Y34432857D02*
X151169047Y34337619D01*
X151264285Y34242380D01*
X151359523Y34051904D01*
X151359523Y33766190D01*
X151264285Y33575714D01*
X151169047Y33480476D01*
X150978571Y33385238D01*
X150216666Y33385238D01*
X150216666Y35385238D01*
X150883333Y35385238D01*
X151073809Y35290000D01*
X151169047Y35194761D01*
X151264285Y35004285D01*
X151264285Y34813809D01*
X151169047Y34623333D01*
X151073809Y34528095D01*
X150883333Y34432857D01*
X150216666Y34432857D01*
X152026190Y34718571D02*
X152502380Y33385238D01*
X152978571Y34718571D02*
X152502380Y33385238D01*
X152311904Y32909047D01*
X152216666Y32813809D01*
X152026190Y32718571D01*
X154978571Y35385238D02*
X156121428Y35385238D01*
X155550000Y33385238D02*
X155550000Y35385238D01*
X156597619Y34718571D02*
X156978571Y33385238D01*
X157359523Y34337619D01*
X157740476Y33385238D01*
X158121428Y34718571D01*
X158883333Y33385238D02*
X158883333Y34718571D01*
X158883333Y35385238D02*
X158788095Y35290000D01*
X158883333Y35194761D01*
X158978571Y35290000D01*
X158883333Y35385238D01*
X158883333Y35194761D01*
X159835714Y34718571D02*
X159835714Y33385238D01*
X159835714Y34528095D02*
X159930952Y34623333D01*
X160121428Y34718571D01*
X160407142Y34718571D01*
X160597619Y34623333D01*
X160692857Y34432857D01*
X160692857Y33385238D01*
X161359523Y35385238D02*
X162502380Y35385238D01*
X161930952Y33385238D02*
X161930952Y35385238D01*
X164026190Y34718571D02*
X164026190Y33385238D01*
X163169047Y34718571D02*
X163169047Y33670952D01*
X163264285Y33480476D01*
X163454761Y33385238D01*
X163740476Y33385238D01*
X163930952Y33480476D01*
X164026190Y33575714D01*
X164978571Y33385238D02*
X164978571Y34718571D01*
X164978571Y34337619D02*
X165073809Y34528095D01*
X165169047Y34623333D01*
X165359523Y34718571D01*
X165550000Y34718571D01*
X166216666Y33385238D02*
X166216666Y35385238D01*
X166216666Y34623333D02*
X166407142Y34718571D01*
X166788095Y34718571D01*
X166978571Y34623333D01*
X167073809Y34528095D01*
X167169047Y34337619D01*
X167169047Y33766190D01*
X167073809Y33575714D01*
X166978571Y33480476D01*
X166788095Y33385238D01*
X166407142Y33385238D01*
X166216666Y33480476D01*
X168311904Y33385238D02*
X168121428Y33480476D01*
X168026190Y33575714D01*
X167930952Y33766190D01*
X167930952Y34337619D01*
X168026190Y34528095D01*
X168121428Y34623333D01*
X168311904Y34718571D01*
X168597619Y34718571D01*
X168788095Y34623333D01*
X168883333Y34528095D01*
X168978571Y34337619D01*
X168978571Y33766190D01*
X168883333Y33575714D01*
X168788095Y33480476D01*
X168597619Y33385238D01*
X168311904Y33385238D01*
D12*
X168148980Y-134180000D02*
G75*
G03*
X168148980Y-134180000I-8428980J0D01*
G01*
X168148980Y-109180000D02*
G75*
G03*
X168148980Y-109180000I-8428980J0D01*
G01*
X168148980Y-84180000D02*
G75*
G03*
X168148980Y-84180000I-8428980J0D01*
G01*
X168148980Y-59180000D02*
G75*
G03*
X168148980Y-59180000I-8428980J0D01*
G01*
X168148980Y-34180000D02*
G75*
G03*
X168148980Y-34180000I-8428980J0D01*
G01*
X156638980Y14510000D02*
G75*
G03*
X156638980Y14510000I-8428980J0D01*
G01*
D13*
X162529047Y-132302380D02*
X162433809Y-132254761D01*
X162386190Y-132159523D01*
X162386190Y-131302380D01*
X162529047Y-107302380D02*
X162433809Y-107254761D01*
X162386190Y-107159523D01*
X162386190Y-106302380D01*
X162529047Y-82302380D02*
X162433809Y-82254761D01*
X162386190Y-82159523D01*
X162386190Y-81302380D01*
X162529047Y-57302380D02*
X162433809Y-57254761D01*
X162386190Y-57159523D01*
X162386190Y-56302380D01*
X162529047Y-32302380D02*
X162433809Y-32254761D01*
X162386190Y-32159523D01*
X162386190Y-31302380D01*
X146332380Y17319047D02*
X146284761Y17223809D01*
X146189523Y17176190D01*
X145332380Y17176190D01*
D14*
X126737142Y-80352857D02*
X126737142Y-79210000D01*
X127308571Y-79781428D02*
X126165714Y-79781428D01*
X127308571Y-77710000D02*
X127308571Y-78567142D01*
X127308571Y-78138571D02*
X125808571Y-78138571D01*
X126022857Y-78281428D01*
X126165714Y-78424285D01*
X126237142Y-78567142D01*
X125951428Y-77138571D02*
X125880000Y-77067142D01*
X125808571Y-76924285D01*
X125808571Y-76567142D01*
X125880000Y-76424285D01*
X125951428Y-76352857D01*
X126094285Y-76281428D01*
X126237142Y-76281428D01*
X126451428Y-76352857D01*
X127308571Y-77210000D01*
X127308571Y-76281428D01*
X125808571Y-75852857D02*
X127308571Y-75352857D01*
X125808571Y-74852857D01*
X126737142Y-130352857D02*
X126737142Y-129210000D01*
X127308571Y-129781428D02*
X126165714Y-129781428D01*
X127308571Y-127710000D02*
X127308571Y-128567142D01*
X127308571Y-128138571D02*
X125808571Y-128138571D01*
X126022857Y-128281428D01*
X126165714Y-128424285D01*
X126237142Y-128567142D01*
X125951428Y-127138571D02*
X125880000Y-127067142D01*
X125808571Y-126924285D01*
X125808571Y-126567142D01*
X125880000Y-126424285D01*
X125951428Y-126352857D01*
X126094285Y-126281428D01*
X126237142Y-126281428D01*
X126451428Y-126352857D01*
X127308571Y-127210000D01*
X127308571Y-126281428D01*
X125808571Y-125852857D02*
X127308571Y-125352857D01*
X125808571Y-124852857D01*
X126737142Y-105352857D02*
X126737142Y-104210000D01*
X127308571Y-104781428D02*
X126165714Y-104781428D01*
X127308571Y-102710000D02*
X127308571Y-103567142D01*
X127308571Y-103138571D02*
X125808571Y-103138571D01*
X126022857Y-103281428D01*
X126165714Y-103424285D01*
X126237142Y-103567142D01*
X125951428Y-102138571D02*
X125880000Y-102067142D01*
X125808571Y-101924285D01*
X125808571Y-101567142D01*
X125880000Y-101424285D01*
X125951428Y-101352857D01*
X126094285Y-101281428D01*
X126237142Y-101281428D01*
X126451428Y-101352857D01*
X127308571Y-102210000D01*
X127308571Y-101281428D01*
X125808571Y-100852857D02*
X127308571Y-100352857D01*
X125808571Y-99852857D01*
X126737142Y-55352857D02*
X126737142Y-54210000D01*
X127308571Y-54781428D02*
X126165714Y-54781428D01*
X127308571Y-52710000D02*
X127308571Y-53567142D01*
X127308571Y-53138571D02*
X125808571Y-53138571D01*
X126022857Y-53281428D01*
X126165714Y-53424285D01*
X126237142Y-53567142D01*
X125951428Y-52138571D02*
X125880000Y-52067142D01*
X125808571Y-51924285D01*
X125808571Y-51567142D01*
X125880000Y-51424285D01*
X125951428Y-51352857D01*
X126094285Y-51281428D01*
X126237142Y-51281428D01*
X126451428Y-51352857D01*
X127308571Y-52210000D01*
X127308571Y-51281428D01*
X125808571Y-50852857D02*
X127308571Y-50352857D01*
X125808571Y-49852857D01*
X126737142Y-30352857D02*
X126737142Y-29210000D01*
X127308571Y-29781428D02*
X126165714Y-29781428D01*
X127308571Y-27710000D02*
X127308571Y-28567142D01*
X127308571Y-28138571D02*
X125808571Y-28138571D01*
X126022857Y-28281428D01*
X126165714Y-28424285D01*
X126237142Y-28567142D01*
X125951428Y-27138571D02*
X125880000Y-27067142D01*
X125808571Y-26924285D01*
X125808571Y-26567142D01*
X125880000Y-26424285D01*
X125951428Y-26352857D01*
X126094285Y-26281428D01*
X126237142Y-26281428D01*
X126451428Y-26352857D01*
X127308571Y-27210000D01*
X127308571Y-26281428D01*
X125808571Y-25852857D02*
X127308571Y-25352857D01*
X125808571Y-24852857D01*
X186942857Y26482857D02*
X186942857Y25340000D01*
X186371428Y25911428D02*
X187514285Y25911428D01*
X186371428Y23840000D02*
X186371428Y24697142D01*
X186371428Y24268571D02*
X187871428Y24268571D01*
X187657142Y24411428D01*
X187514285Y24554285D01*
X187442857Y24697142D01*
X187728571Y23268571D02*
X187800000Y23197142D01*
X187871428Y23054285D01*
X187871428Y22697142D01*
X187800000Y22554285D01*
X187728571Y22482857D01*
X187585714Y22411428D01*
X187442857Y22411428D01*
X187228571Y22482857D01*
X186371428Y23340000D01*
X186371428Y22411428D01*
X187871428Y21982857D02*
X186371428Y21482857D01*
X187871428Y20982857D01*
X126737142Y-5352857D02*
X126737142Y-4210000D01*
X127308571Y-4781428D02*
X126165714Y-4781428D01*
X127308571Y-2710000D02*
X127308571Y-3567142D01*
X127308571Y-3138571D02*
X125808571Y-3138571D01*
X126022857Y-3281428D01*
X126165714Y-3424285D01*
X126237142Y-3567142D01*
X125951428Y-2138571D02*
X125880000Y-2067142D01*
X125808571Y-1924285D01*
X125808571Y-1567142D01*
X125880000Y-1424285D01*
X125951428Y-1352857D01*
X126094285Y-1281428D01*
X126237142Y-1281428D01*
X126451428Y-1352857D01*
X127308571Y-2210000D01*
X127308571Y-1281428D01*
X125808571Y-852857D02*
X127308571Y-352857D01*
X125808571Y147142D01*
M02*
